PowerhouseFilarQuarto-BoldItalic.ufo
<glyph name="quotesingle" format="2">
  <advance width="350"/>
  <unicode hex="0027"/>
  <outline>
    <contour>
      <point x="175" y="700" type="line"/>
      <point x="142" y="364" type="line"/>
      <point x="248" y="364" type="line"/>
      <point x="333" y="700" type="line"/>
    </contour>
  </outline>
</glyph>
<glyph name="plus" format="2">
  <advance width="600"/>
  <unicode hex="002B"/>
  <outline>
    <contour>
      <point x="549" y="280" type="line"/>
      <point x="571" y="400" type="line"/>
      <point x="83" y="400" type="line"/>
      <point x="61" y="280" type="line"/>
    </contour>
    <contour>
      <point x="424" y="594" type="line"/>
      <point x="298" y="594" type="line"/>
      <point x="208" y="86" type="line"/>
      <point x="334" y="86" type="line"/>
    </contour>
  </outline>
</glyph>
<glyph name="comma" format="2">
  <advance width="350"/>
  <unicode hex="002C"/>
  <outline>
    <contour>
      <point x="85" y="158" type="line"/>
      <point x="57" y="0" type="line"/>
      <point x="134" y="0" type="line"/>
      <point x="132" y="-13" type="line" smooth="yes"/>
      <point x="123" y="-64"/>
      <point x="86" y="-99"/>
      <point x="17" y="-99" type="curve"/>
      <point x="7" y="-160" type="line"/>
      <point x="138" y="-160"/>
      <point x="193" y="-66"/>
      <point x="203" y="-12" type="curve" smooth="yes"/>
      <point x="233" y="158" type="line"/>
    </contour>
  </outline>
</glyph>
<glyph name="hyphen" format="2">
  <advance width="600"/>
  <unicode hex="002D"/>
  <outline>
    <contour>
      <point x="131" y="227" type="line"/>
      <point x="461" y="227" type="line"/>
      <point x="485" y="365" type="line"/>
      <point x="155" y="365" type="line"/>
    </contour>
  </outline>
</glyph>
<glyph name="four" format="2">
  <advance width="600"/>
  <unicode hex="0034"/>
  <outline>
    <contour>
      <point x="550" y="700" type="line"/>
      <point x="390" y="700" type="line"/>
      <point x="24" y="275" type="line"/>
      <point x="4" y="161" type="line"/>
      <point x="561" y="161" type="line"/>
      <point x="581" y="274" type="line"/>
      <point x="78" y="274" type="line"/>
      <point x="111" y="210" type="line"/>
      <point x="502" y="661" type="line"/>
      <point x="403" y="661" type="line"/>
      <point x="286" y="0" type="line"/>
      <point x="426" y="0" type="line"/>
    </contour>
  </outline>
</glyph>
<glyph name="at" format="2">
  <advance width="760"/>
  <unicode hex="0040"/>
  <outline>
    <contour>
      <point x="39" y="253" type="curve" smooth="yes"/>
      <point x="-3" y="9"/>
      <point x="107" y="-140"/>
      <point x="336" y="-140" type="curve" smooth="yes"/>
      <point x="415" y="-140"/>
      <point x="495" y="-121"/>
      <point x="560" y="-85" type="curve"/>
      <point x="538" y="-4" type="line"/>
      <point x="479" y="-32"/>
      <point x="414" y="-50"/>
      <point x="341" y="-50" type="curve" smooth="yes"/>
      <point x="164" y="-50"/>
      <point x="102" y="67"/>
      <point x="132" y="242" type="curve" smooth="yes"/>
      <point x="166" y="428"/>
      <point x="294" y="558"/>
      <point x="463" y="558" type="curve" smooth="yes"/>
      <point x="586" y="558"/>
      <point x="680" y="489"/>
      <point x="647" y="301" type="curve" smooth="yes"/>
      <point x="632" y="210"/>
      <point x="590" y="146"/>
      <point x="544" y="146" type="curve" smooth="yes"/>
      <point x="515" y="146"/>
      <point x="508" y="163"/>
      <point x="516" y="192" type="curve" smooth="yes"/>
      <point x="590" y="451" type="line"/>
      <point x="487" y="451" type="line"/>
      <point x="474" y="405" type="line"/>
      <point x="463" y="438"/>
      <point x="435" y="457"/>
      <point x="396" y="457" type="curve" smooth="yes"/>
      <point x="306" y="457"/>
      <point x="228" y="365"/>
      <point x="206" y="243" type="curve" smooth="yes"/>
      <point x="187" y="140"/>
      <point x="220" y="52"/>
      <point x="313" y="52" type="curve" smooth="yes"/>
      <point x="351" y="52"/>
      <point x="385" y="70"/>
      <point x="413" y="105" type="curve"/>
      <point x="426" y="70"/>
      <point x="465" y="52"/>
      <point x="513" y="52" type="curve" smooth="yes"/>
      <point x="625" y="52"/>
      <point x="715" y="138"/>
      <point x="740" y="288" type="curve" smooth="yes"/>
      <point x="782" y="508"/>
      <point x="665" y="646"/>
      <point x="470" y="646" type="curve" smooth="yes"/>
      <point x="248" y="646"/>
      <point x="81" y="485"/>
    </contour>
    <contour>
      <point x="436" y="258" type="curve" smooth="yes"/>
      <point x="423" y="196"/>
      <point x="392" y="142"/>
      <point x="347" y="142" type="curve" smooth="yes"/>
      <point x="304" y="142"/>
      <point x="297" y="183"/>
      <point x="312" y="250" type="curve" smooth="yes"/>
      <point x="326" y="316"/>
      <point x="356" y="367"/>
      <point x="402" y="367" type="curve" smooth="yes"/>
      <point x="446" y="367"/>
      <point x="450" y="321"/>
    </contour>
  </outline>
</glyph>
<glyph name="C" format="2">
  <advance width="760"/>
  <unicode hex="0043"/>
  <outline>
    <contour>
      <point x="77" y="286" type="curve" smooth="yes"/>
      <point x="77" y="105"/>
      <point x="196" y="-12"/>
      <point x="373" y="-12" type="curve" smooth="yes"/>
      <point x="525" y="-12"/>
      <point x="647" y="76"/>
      <point x="704" y="203" type="curve"/>
      <point x="579" y="251" type="line"/>
      <point x="536" y="161"/>
      <point x="468" y="115"/>
      <point x="388" y="115" type="curve" smooth="yes"/>
      <point x="295" y="115"/>
      <point x="233" y="178"/>
      <point x="233" y="293" type="curve" smooth="yes"/>
      <point x="233" y="436"/>
      <point x="314" y="583"/>
      <point x="457" y="583" type="curve" smooth="yes"/>
      <point x="538" y="583"/>
      <point x="603" y="539"/>
      <point x="612" y="442" type="curve"/>
      <point x="748" y="474" type="line"/>
      <point x="733" y="615"/>
      <point x="631" y="712"/>
      <point x="470" y="712" type="curve" smooth="yes"/>
      <point x="231" y="712"/>
      <point x="77" y="497"/>
    </contour>
  </outline>
</glyph>
<glyph name="D" format="2">
  <advance width="760"/>
  <unicode hex="0044"/>
  <guideline x="353.27" y="700.11" angle="90" name="center" identifier="J49F4iKtfs"/>
  <outline>
    <contour>
      <point x="119" y="123" type="line"/>
      <point x="97" y="0" type="line"/>
      <point x="312" y="0" type="line" smooth="yes"/>
      <point x="593" y="0"/>
      <point x="739" y="186"/>
      <point x="739" y="408" type="curve" smooth="yes"/>
      <point x="739" y="580"/>
      <point x="636" y="700"/>
      <point x="434" y="700" type="curve" smooth="yes"/>
      <point x="221" y="700" type="line"/>
      <point x="199" y="577" type="line"/>
      <point x="407" y="577" type="line" smooth="yes"/>
      <point x="511" y="577"/>
      <point x="583" y="525"/>
      <point x="583" y="396" type="curve" smooth="yes"/>
      <point x="583" y="243"/>
      <point x="484" y="123"/>
      <point x="327" y="123" type="curve" smooth="yes"/>
    </contour>
    <contour>
      <point x="159" y="700" type="line"/>
      <point x="35" y="0" type="line"/>
      <point x="185" y="0" type="line"/>
      <point x="309" y="700" type="line"/>
    </contour>
  </outline>
</glyph>
<glyph name="G" format="2">
  <advance width="760"/>
  <unicode hex="0047"/>
  <guideline x="399" y="700" angle="90" name="center" identifier="5qKl4RnOci"/>
  <outline>
    <contour>
      <point x="562" y="144" type="line"/>
      <point x="537" y="0" type="line"/>
      <point x="659" y="0" type="line"/>
      <point x="726" y="382" type="line"/>
      <point x="450" y="382" type="line"/>
      <point x="430" y="268" type="line"/>
      <point x="626" y="268" type="line"/>
      <point x="592" y="305" type="line"/>
      <point x="587" y="280" type="line" smooth="yes"/>
      <point x="569" y="173"/>
      <point x="487" y="114"/>
      <point x="389" y="114" type="curve" smooth="yes"/>
      <point x="287" y="114"/>
      <point x="218" y="178"/>
      <point x="225" y="314" type="curve" smooth="yes"/>
      <point x="231" y="460"/>
      <point x="315" y="584"/>
      <point x="452" y="584" type="curve" smooth="yes"/>
      <point x="531" y="584"/>
      <point x="590" y="542"/>
      <point x="601" y="463" type="curve"/>
      <point x="735" y="498" type="line"/>
      <point x="715" y="617"/>
      <point x="625" y="711"/>
      <point x="465" y="711" type="curve" smooth="yes"/>
      <point x="228" y="711"/>
      <point x="77" y="515"/>
      <point x="69" y="307" type="curve" smooth="yes"/>
      <point x="61" y="111"/>
      <point x="179" y="-12"/>
      <point x="347" y="-12" type="curve" smooth="yes"/>
      <point x="458" y="-12"/>
      <point x="556" y="46"/>
      <point x="598" y="137" type="curve"/>
    </contour>
  </outline>
</glyph>
<glyph name="H" format="2">
  <advance width="760"/>
  <unicode hex="0048"/>
  <outline>
    <contour>
      <point x="151" y="299" type="line"/>
      <point x="628" y="299" type="line"/>
      <point x="650" y="423" type="line"/>
      <point x="173" y="423" type="line"/>
    </contour>
    <contour>
      <point x="610" y="700" type="line"/>
      <point x="486" y="0" type="line"/>
      <point x="637" y="0" type="line"/>
      <point x="761" y="700" type="line"/>
    </contour>
    <contour>
      <point x="159" y="700" type="line"/>
      <point x="35" y="0" type="line"/>
      <point x="186" y="0" type="line"/>
      <point x="310" y="700" type="line"/>
    </contour>
  </outline>
</glyph>
<glyph name="I" format="2">
  <advance width="350"/>
  <unicode hex="0049"/>
  <outline>
    <contour>
      <point x="180" y="700" type="line"/>
      <point x="57" y="0" type="line"/>
      <point x="207" y="0" type="line"/>
      <point x="330" y="700" type="line"/>
    </contour>
    <contour>
      <point x="57" y="0" type="line"/>
      <point x="206" y="0" type="line"/>
      <point x="228" y="124" type="line"/>
      <point x="79" y="124" type="line"/>
    </contour>
    <contour>
      <point x="158" y="576" type="line"/>
      <point x="307" y="576" type="line"/>
      <point x="329" y="700" type="line"/>
      <point x="180" y="700" type="line"/>
    </contour>
  </outline>
</glyph>
<glyph name="M" format="2">
  <advance width="760"/>
  <unicode hex="004D"/>
  <outline>
    <contour>
      <point x="238" y="597" type="line"/>
      <point x="341" y="168" type="line"/>
      <point x="390" y="168" type="line"/>
      <point x="657" y="626" type="line"/>
      <point x="618" y="626" type="line"/>
      <point x="508" y="0" type="line"/>
      <point x="649" y="0" type="line"/>
      <point x="772" y="700" type="line"/>
      <point x="580" y="700" type="line"/>
      <point x="384" y="366" type="line"/>
      <point x="405" y="366" type="line"/>
      <point x="326" y="700" type="line"/>
      <point x="146" y="700" type="line"/>
      <point x="23" y="0" type="line"/>
      <point x="164" y="0" type="line"/>
      <point x="274" y="623" type="line"/>
    </contour>
  </outline>
</glyph>
<glyph name="N" format="2">
  <advance width="760"/>
  <unicode hex="004E"/>
  <outline>
    <contour>
      <point x="584" y="118" type="line"/>
      <point x="342" y="700" type="line"/>
      <point x="154" y="700" type="line"/>
      <point x="31" y="0" type="line"/>
      <point x="177" y="0" type="line"/>
      <point x="277" y="580" type="line"/>
      <point x="244" y="580" type="line"/>
      <point x="485" y="0" type="line"/>
      <point x="641" y="0" type="line"/>
      <point x="764" y="700" type="line"/>
      <point x="619" y="700" type="line"/>
      <point x="517" y="118" type="line"/>
    </contour>
  </outline>
</glyph>
<glyph name="Q" format="2">
  <advance width="760"/>
  <unicode hex="0051"/>
  <outline>
    <contour>
      <point x="264" y="-51" type="curve" smooth="yes"/>
      <point x="264" y="-146"/>
      <point x="337" y="-185"/>
      <point x="461" y="-185" type="curve" smooth="yes"/>
      <point x="490" y="-185"/>
      <point x="524" y="-183"/>
      <point x="550" y="-179" type="curve"/>
      <point x="570" y="-68" type="line"/>
      <point x="551" y="-70"/>
      <point x="533" y="-71"/>
      <point x="515" y="-71" type="curve" smooth="yes"/>
      <point x="438" y="-71"/>
      <point x="420" y="-51"/>
      <point x="420" y="-26" type="curve" smooth="yes"/>
      <point x="420" y="-22"/>
      <point x="420" y="-18"/>
      <point x="421" y="-14" type="curve" smooth="yes"/>
      <point x="428" y="25" type="line"/>
      <point x="275" y="30" type="line"/>
      <point x="267" y="-15" type="line" smooth="yes"/>
      <point x="265" y="-28"/>
      <point x="264" y="-40"/>
    </contour>
    <contour>
      <point x="588" y="405" type="curve" smooth="yes"/>
      <point x="588" y="257"/>
      <point x="502" y="116"/>
      <point x="364" y="116" type="curve" smooth="yes"/>
      <point x="269" y="116"/>
      <point x="207" y="180"/>
      <point x="207" y="295" type="curve" smooth="yes"/>
      <point x="207" y="443"/>
      <point x="293" y="584"/>
      <point x="431" y="584" type="curve" smooth="yes"/>
      <point x="526" y="584"/>
      <point x="588" y="520"/>
    </contour>
    <contour>
      <point x="52" y="288" type="curve" smooth="yes"/>
      <point x="52" y="106"/>
      <point x="170" y="-12"/>
      <point x="352" y="-12" type="curve" smooth="yes"/>
      <point x="594" y="-12"/>
      <point x="743" y="192"/>
      <point x="743" y="412" type="curve" smooth="yes"/>
      <point x="743" y="594"/>
      <point x="625" y="712"/>
      <point x="443" y="712" type="curve" smooth="yes"/>
      <point x="201" y="712"/>
      <point x="52" y="508"/>
    </contour>
  </outline>
</glyph>
<glyph name="U" format="2">
  <advance width="760"/>
  <unicode hex="0055"/>
  <outline>
    <contour>
      <point x="685" y="258" type="curve" smooth="yes"/>
      <point x="763" y="700" type="line"/>
      <point x="618" y="700" type="line"/>
      <point x="542" y="271" type="line" smooth="yes"/>
      <point x="525" y="177"/>
      <point x="463" y="117"/>
      <point x="366" y="117" type="curve" smooth="yes"/>
      <point x="277" y="117"/>
      <point x="224" y="169"/>
      <point x="224" y="247" type="curve" smooth="yes"/>
      <point x="224" y="258"/>
      <point x="225" y="270"/>
      <point x="227" y="283" type="curve" smooth="yes"/>
      <point x="301" y="700" type="line"/>
      <point x="155" y="700" type="line"/>
      <point x="81" y="280" type="line" smooth="yes"/>
      <point x="77" y="259"/>
      <point x="75" y="238"/>
      <point x="75" y="219" type="curve" smooth="yes"/>
      <point x="75" y="78"/>
      <point x="175" y="-12"/>
      <point x="354" y="-12" type="curve" smooth="yes"/>
      <point x="548" y="-12"/>
      <point x="656" y="93"/>
    </contour>
  </outline>
</glyph>
<glyph name="W" format="2">
  <advance width="760"/>
  <unicode hex="0057"/>
  <outline>
    <contour>
      <point x="574" y="0" type="line"/>
      <point x="812" y="700" type="line"/>
      <point x="671" y="700" type="line"/>
      <point x="479" y="114" type="line"/>
      <point x="534" y="114" type="line"/>
      <point x="488" y="560" type="line"/>
      <point x="374" y="560" type="line"/>
      <point x="172" y="114" type="line"/>
      <point x="228" y="114" type="line"/>
      <point x="243" y="700" type="line"/>
      <point x="106" y="700" type="line"/>
      <point x="98" y="0" type="line"/>
      <point x="225" y="0" type="line"/>
      <point x="444" y="491" type="line"/>
      <point x="394" y="491" type="line"/>
      <point x="443" y="0" type="line"/>
    </contour>
  </outline>
</glyph>
<glyph name="X" format="2">
  <advance width="680"/>
  <unicode hex="0058"/>
  <outline>
    <contour>
      <point x="118" y="700" type="line"/>
      <point x="285" y="344" type="line"/>
      <point x="300" y="337" type="line"/>
      <point x="455" y="0" type="line"/>
      <point x="615" y="0" type="line"/>
      <point x="429" y="394" type="line"/>
      <point x="413" y="399" type="line"/>
      <point x="279" y="700" type="line"/>
    </contour>
    <contour>
      <point x="720" y="700" type="line"/>
      <point x="547" y="700" type="line"/>
      <point x="309" y="397" type="line"/>
      <point x="295" y="389" type="line"/>
      <point x="-23" y="0" type="line"/>
      <point x="153" y="0" type="line"/>
      <point x="426" y="343" type="line"/>
      <point x="436" y="345" type="line"/>
    </contour>
  </outline>
</glyph>
<glyph name="d" format="2">
  <advance width="600"/>
  <unicode hex="0064"/>
  <outline>
    <contour>
      <point x="30" y="198" type="curve" smooth="yes"/>
      <point x="30" y="66"/>
      <point x="111" y="-12"/>
      <point x="211" y="-12" type="curve" smooth="yes"/>
      <point x="298" y="-12"/>
      <point x="366" y="38"/>
      <point x="406" y="116" type="curve"/>
      <point x="377" y="117" type="line"/>
      <point x="357" y="0" type="line"/>
      <point x="497" y="0" type="line"/>
      <point x="620" y="700" type="line"/>
      <point x="480" y="700" type="line"/>
      <point x="423" y="377" type="line"/>
      <point x="456" y="376" type="line"/>
      <point x="439" y="460"/>
      <point x="374" y="513"/>
      <point x="283" y="513" type="curve" smooth="yes"/>
      <point x="128" y="513"/>
      <point x="30" y="363"/>
    </contour>
    <contour>
      <point x="410" y="286" type="curve" smooth="yes"/>
      <point x="410" y="198"/>
      <point x="366" y="104"/>
      <point x="272" y="104" type="curve" smooth="yes"/>
      <point x="211" y="104"/>
      <point x="173" y="145"/>
      <point x="173" y="217" type="curve" smooth="yes"/>
      <point x="173" y="305"/>
      <point x="217" y="396"/>
      <point x="311" y="396" type="curve" smooth="yes"/>
      <point x="372" y="396"/>
      <point x="410" y="357"/>
    </contour>
  </outline>
</glyph>
<glyph name="g" format="2">
  <advance width="600"/>
  <unicode hex="0067"/>
  <outline>
    <contour>
      <point x="3" y="-25" type="line"/>
      <point x="6" y="-117"/>
      <point x="77" y="-192"/>
      <point x="233" y="-192" type="curve" smooth="yes"/>
      <point x="374" y="-192"/>
      <point x="475" y="-126"/>
      <point x="498" y="4" type="curve" smooth="yes"/>
      <point x="585" y="500" type="line"/>
      <point x="445" y="500" type="line"/>
      <point x="423" y="375" type="line"/>
      <point x="456" y="374" type="line"/>
      <point x="437" y="464"/>
      <point x="378" y="512"/>
      <point x="288" y="512" type="curve" smooth="yes"/>
      <point x="140" y="512"/>
      <point x="37" y="368"/>
      <point x="37" y="218" type="curve" smooth="yes"/>
      <point x="37" y="93"/>
      <point x="114" y="13"/>
      <point x="219" y="13" type="curve" smooth="yes"/>
      <point x="298" y="13"/>
      <point x="367" y="57"/>
      <point x="414" y="140" type="curve"/>
      <point x="381" y="141" type="line"/>
      <point x="358" y="7" type="line" smooth="yes"/>
      <point x="347" y="-53"/>
      <point x="307" y="-86"/>
      <point x="244" y="-86" type="curve" smooth="yes"/>
      <point x="179" y="-86"/>
      <point x="152" y="-52"/>
      <point x="152" y="-8" type="curve"/>
    </contour>
    <contour>
      <point x="411" y="291" type="curve" smooth="yes"/>
      <point x="411" y="213"/>
      <point x="362" y="127"/>
      <point x="275" y="127" type="curve" smooth="yes"/>
      <point x="215" y="127"/>
      <point x="179" y="168"/>
      <point x="179" y="233" type="curve" smooth="yes"/>
      <point x="179" y="311"/>
      <point x="228" y="397"/>
      <point x="315" y="397" type="curve" smooth="yes"/>
      <point x="375" y="397"/>
      <point x="411" y="356"/>
    </contour>
  </outline>
</glyph>
<glyph name="k" format="2">
  <advance width="600"/>
  <unicode hex="006B"/>
  <outline>
    <contour>
      <point x="37" y="0" type="line"/>
      <point x="177" y="0" type="line"/>
      <point x="300" y="700" type="line"/>
      <point x="160" y="700" type="line"/>
    </contour>
    <contour>
      <point x="152" y="256" type="line"/>
      <point x="134" y="100" type="line"/>
      <point x="320" y="255" type="line"/>
      <point x="362" y="277" type="line"/>
      <point x="632" y="500" type="line"/>
      <point x="445" y="500" type="line"/>
    </contour>
    <contour>
      <point x="257" y="260" type="line"/>
      <point x="404" y="0" type="line"/>
      <point x="552" y="0" type="line"/>
      <point x="357" y="345" type="line"/>
    </contour>
  </outline>
</glyph>
<glyph name="m" format="2">
  <advance width="760"/>
  <unicode hex="006D"/>
  <outline>
    <contour>
      <point x="28" y="0" type="line"/>
      <point x="159" y="0" type="line"/>
      <point x="216" y="328" type="line" smooth="yes"/>
      <point x="224" y="370"/>
      <point x="251" y="397"/>
      <point x="288" y="397" type="curve" smooth="yes"/>
      <point x="330" y="397"/>
      <point x="339" y="363"/>
      <point x="332" y="331" type="curve" smooth="yes"/>
      <point x="274" y="0" type="line"/>
      <point x="404" y="0" type="line"/>
      <point x="463" y="331" type="line" smooth="yes"/>
      <point x="470" y="370"/>
      <point x="498" y="397"/>
      <point x="534" y="397" type="curve" smooth="yes"/>
      <point x="577" y="397"/>
      <point x="584" y="362"/>
      <point x="578" y="332" type="curve" smooth="yes"/>
      <point x="519" y="0" type="line"/>
      <point x="650" y="0" type="line"/>
      <point x="714" y="364" type="line" smooth="yes"/>
      <point x="727" y="437"/>
      <point x="702" y="512"/>
      <point x="608" y="512" type="curve" smooth="yes"/>
      <point x="552" y="512"/>
      <point x="503" y="485"/>
      <point x="466" y="441" type="curve"/>
      <point x="452" y="485"/>
      <point x="416" y="512"/>
      <point x="362" y="512" type="curve" smooth="yes"/>
      <point x="311" y="512"/>
      <point x="268" y="485"/>
      <point x="238" y="449" type="curve"/>
      <point x="247" y="500" type="line"/>
      <point x="116" y="500" type="line"/>
    </contour>
  </outline>
</glyph>
<glyph name="r" format="2">
  <advance width="350"/>
  <unicode hex="0072"/>
  <outline>
    <contour>
      <point x="170" y="194" type="line" smooth="yes"/>
      <point x="190" y="307"/>
      <point x="246" y="374"/>
      <point x="324" y="374" type="curve" smooth="yes"/>
      <point x="336" y="374"/>
      <point x="348" y="372"/>
      <point x="361" y="369" type="curve"/>
      <point x="385" y="506" type="line"/>
      <point x="378" y="508"/>
      <point x="370" y="510"/>
      <point x="358" y="510" type="curve" smooth="yes"/>
      <point x="283" y="510"/>
      <point x="218" y="445"/>
      <point x="174" y="348" type="curve"/>
      <point x="197" y="347" type="line"/>
      <point x="224" y="500" type="line"/>
      <point x="84" y="500" type="line"/>
      <point x="-4" y="0" type="line"/>
      <point x="136" y="0" type="line"/>
    </contour>
  </outline>
</glyph>
<glyph name="t" format="2">
  <advance width="600"/>
  <unicode hex="0074"/>
  <outline>
    <contour>
      <point x="52" y="393" type="line"/>
      <point x="556" y="393" type="line"/>
      <point x="575" y="500" type="line"/>
      <point x="71" y="500" type="line"/>
    </contour>
    <contour>
      <point x="180" y="197" type="line"/>
      <point x="177" y="180"/>
      <point x="175" y="164"/>
      <point x="175" y="148" type="curve" smooth="yes"/>
      <point x="175" y="56"/>
      <point x="231" y="-12"/>
      <point x="384" y="-12" type="curve" smooth="yes"/>
      <point x="428" y="-12"/>
      <point x="465" y="-8"/>
      <point x="493" y="-1" type="curve"/>
      <point x="512" y="106" type="line"/>
      <point x="480" y="102"/>
      <point x="449" y="101"/>
      <point x="421" y="101" type="curve" smooth="yes"/>
      <point x="350" y="101"/>
      <point x="317" y="124"/>
      <point x="317" y="175" type="curve" smooth="yes"/>
      <point x="317" y="183"/>
      <point x="318" y="192"/>
      <point x="320" y="202" type="curve" smooth="yes"/>
      <point x="398" y="643" type="line"/>
      <point x="258" y="643" type="line"/>
    </contour>
  </outline>
</glyph>
<glyph name="v" format="2">
  <advance width="600"/>
  <unicode hex="0076"/>
  <outline>
    <contour>
      <point x="179" y="0" type="line"/>
      <point x="334" y="0" type="line"/>
      <point x="623" y="500" type="line"/>
      <point x="468" y="500" type="line"/>
      <point x="213" y="39" type="line"/>
      <point x="299" y="39" type="line"/>
      <point x="204" y="500" type="line"/>
      <point x="65" y="500" type="line"/>
    </contour>
  </outline>
</glyph>
<glyph name="w" format="2">
  <advance width="760"/>
  <unicode hex="0077"/>
  <outline>
    <contour>
      <point x="125" y="0" type="line"/>
      <point x="251" y="0" type="line"/>
      <point x="455" y="435" type="line"/>
      <point x="368" y="435" type="line"/>
      <point x="423" y="0" type="line"/>
      <point x="549" y="0" type="line"/>
      <point x="796" y="500" type="line"/>
      <point x="651" y="500" type="line"/>
      <point x="446" y="50" type="line"/>
      <point x="534" y="50" type="line"/>
      <point x="474" y="500" type="line"/>
      <point x="364" y="500" type="line"/>
      <point x="158" y="50" type="line"/>
      <point x="241" y="50" type="line"/>
      <point x="194" y="500" type="line"/>
      <point x="53" y="500" type="line"/>
    </contour>
  </outline>
</glyph>
<glyph name="ordmasculine" format="2">
  <advance width="350"/>
  <unicode hex="00BA"/>
  <outline>
    <contour>
      <point x="268" y="495" type="curve" smooth="yes"/>
      <point x="256" y="423"/>
      <point x="235" y="393"/>
      <point x="203" y="393" type="curve" smooth="yes"/>
      <point x="171" y="393"/>
      <point x="156" y="423"/>
      <point x="172" y="515" type="curve" smooth="yes"/>
      <point x="184" y="587"/>
      <point x="205" y="617"/>
      <point x="237" y="617" type="curve" smooth="yes"/>
      <point x="269" y="617"/>
      <point x="284" y="587"/>
    </contour>
    <contour>
      <point x="56" y="535" type="curve" smooth="yes"/>
      <point x="29" y="379"/>
      <point x="92" y="298"/>
      <point x="201" y="298" type="curve" smooth="yes"/>
      <point x="300" y="298"/>
      <point x="365" y="369"/>
      <point x="384" y="475" type="curve" smooth="yes"/>
      <point x="411" y="631"/>
      <point x="347" y="712"/>
      <point x="238" y="712" type="curve" smooth="yes"/>
      <point x="139" y="712"/>
      <point x="75" y="641"/>
    </contour>
  </outline>
</glyph>
<glyph name="AE" format="2">
  <advance width="760"/>
  <unicode hex="00C6"/>
  <guideline x="697" y="700" angle="90" name="center" identifier="dsZ4tsK3tu"/>
  <guideline x="697" y="700" angle="90" name="center" identifier="Fn6ekfY1bd"/>
  <outline>
    <contour>
      <point x="-18" y="0" type="line"/>
      <point x="130" y="0" type="line"/>
      <point x="382" y="576" type="line"/>
      <point x="453" y="576" type="line"/>
      <point x="475" y="700" type="line"/>
      <point x="294" y="700" type="line"/>
    </contour>
    <contour>
      <point x="140" y="161" type="line"/>
      <point x="408" y="161" type="line"/>
      <point x="429" y="283" type="line"/>
      <point x="161" y="283" type="line"/>
    </contour>
    <contour>
      <point x="373" y="0" type="line"/>
      <point x="676" y="0" type="line"/>
      <point x="698" y="124" type="line"/>
      <point x="395" y="124" type="line"/>
    </contour>
    <contour>
      <point x="311" y="0" type="line"/>
      <point x="450" y="0" type="line"/>
      <point x="573" y="700" type="line"/>
      <point x="434" y="700" type="line"/>
    </contour>
    <contour>
      <point x="431" y="294" type="line"/>
      <point x="642" y="294" type="line"/>
      <point x="663" y="417" type="line"/>
      <point x="452" y="417" type="line"/>
    </contour>
    <contour>
      <point x="470" y="576" type="line"/>
      <point x="759" y="576" type="line"/>
      <point x="781" y="700" type="line"/>
      <point x="492" y="700" type="line"/>
    </contour>
  </outline>
</glyph>
<glyph name="Icircumflex" format="2">
  <advance width="350"/>
  <unicode hex="00CE"/>
  <outline>
    <contour>
      <point x="218" y="892" type="line"/>
      <point x="74" y="760" type="line"/>
      <point x="201" y="760" type="line"/>
      <point x="337" y="845" type="line"/>
      <point x="229" y="845" type="line"/>
      <point x="335" y="760" type="line"/>
      <point x="454" y="760" type="line"/>
      <point x="358" y="892" type="line"/>
    </contour>
    <component base="I"/>
  </outline>
</glyph>
<glyph name="ae" format="2">
  <advance width="760"/>
  <unicode hex="00E6"/>
  <outline>
    <contour>
      <point x="26" y="165" type="curve" smooth="yes"/>
      <point x="7" y="70"/>
      <point x="71" y="-12"/>
      <point x="182" y="-12" type="curve" smooth="yes"/>
      <point x="338" y="-12"/>
      <point x="390" y="125"/>
      <point x="407" y="223" type="curve" smooth="yes"/>
      <point x="438" y="352" type="line" smooth="yes"/>
      <point x="439" y="361"/>
      <point x="440" y="370"/>
      <point x="440" y="378" type="curve" smooth="yes"/>
      <point x="440" y="453"/>
      <point x="383" y="512"/>
      <point x="279" y="512" type="curve" smooth="yes"/>
      <point x="161" y="512"/>
      <point x="96" y="449"/>
      <point x="72" y="355" type="curve"/>
      <point x="194" y="331" type="line"/>
      <point x="207" y="382"/>
      <point x="226" y="406"/>
      <point x="271" y="406" type="curve" smooth="yes"/>
      <point x="305" y="406"/>
      <point x="327" y="392"/>
      <point x="327" y="360" type="curve" smooth="yes"/>
      <point x="327" y="355"/>
      <point x="326" y="349"/>
      <point x="325" y="344" type="curve" smooth="yes"/>
      <point x="293" y="158" type="line" smooth="yes"/>
      <point x="285" y="116"/>
      <point x="251" y="89"/>
      <point x="207" y="89" type="curve" smooth="yes"/>
      <point x="152" y="89"/>
      <point x="145" y="134"/>
      <point x="150" y="153" type="curve" smooth="yes"/>
      <point x="156" y="185"/>
      <point x="185" y="202"/>
      <point x="238" y="205" type="curve" smooth="yes"/>
      <point x="367" y="212" type="line"/>
      <point x="385" y="312" type="line"/>
      <point x="223" y="305" type="line" smooth="yes"/>
      <point x="119" y="301"/>
      <point x="41" y="252"/>
    </contour>
    <contour>
      <point x="323" y="235" type="curve" smooth="yes"/>
      <point x="305" y="76"/>
      <point x="371" y="-12"/>
      <point x="495" y="-12" type="curve" smooth="yes"/>
      <point x="579" y="-12"/>
      <point x="653" y="33"/>
      <point x="697" y="131" type="curve"/>
      <point x="583" y="163" type="line"/>
      <point x="563" y="115"/>
      <point x="536" y="96"/>
      <point x="502" y="96" type="curve" smooth="yes"/>
      <point x="461" y="96"/>
      <point x="433" y="116"/>
      <point x="433" y="184" type="curve" smooth="yes"/>
      <point x="433" y="252"/>
      <point x="459" y="402"/>
      <point x="542" y="402" type="curve" smooth="yes"/>
      <point x="577" y="402"/>
      <point x="602" y="381"/>
      <point x="602" y="321" type="curve" smooth="yes"/>
      <point x="602" y="302"/>
      <point x="600" y="279"/>
      <point x="594" y="250" type="curve"/>
      <point x="666" y="308" type="line"/>
      <point x="382" y="308" type="line"/>
      <point x="366" y="205" type="line"/>
      <point x="712" y="205" type="line"/>
      <point x="716" y="229" type="line" smooth="yes"/>
      <point x="722" y="262"/>
      <point x="725" y="285"/>
      <point x="725" y="314" type="curve" smooth="yes"/>
      <point x="725" y="440"/>
      <point x="661" y="512"/>
      <point x="556" y="512" type="curve" smooth="yes"/>
      <point x="422" y="512"/>
      <point x="337" y="379"/>
    </contour>
  </outline>
</glyph>
<glyph name="idieresis" format="2">
  <advance width="350"/>
  <unicode hex="00EF"/>
  <outline>
    <contour>
      <point x="87" y="700" type="line"/>
      <point x="63" y="564" type="line"/>
      <point x="203" y="564" type="line"/>
      <point x="227" y="700" type="line"/>
    </contour>
    <contour>
      <point x="279" y="700" type="line"/>
      <point x="255" y="564" type="line"/>
      <point x="395" y="564" type="line"/>
      <point x="419" y="700" type="line"/>
    </contour>
    <component base="dotlessi"/>
  </outline>
</glyph>
<glyph name="eogonek" format="2">
  <advance width="600"/>
  <unicode hex="0119"/>
  <outline>
    <contour>
      <point x="45" y="209" type="curve" smooth="yes"/>
      <point x="45" y="92"/>
      <point x="122" y="-6"/>
      <point x="266" y="-12" type="curve" smooth="yes"/>
      <point x="270" y="-12"/>
      <point x="274" y="-12"/>
      <point x="278" y="-12" type="curve"/>
      <point x="246" y="11" type="line"/>
      <point x="176" y="-32"/>
      <point x="127" y="-50"/>
      <point x="127" y="-123" type="curve" smooth="yes"/>
      <point x="127" y="-167"/>
      <point x="164" y="-203"/>
      <point x="251" y="-203" type="curve" smooth="yes"/>
      <point x="271" y="-203"/>
      <point x="302" y="-200"/>
      <point x="325" y="-190" type="curve"/>
      <point x="333" y="-108" type="line"/>
      <point x="314" y="-113"/>
      <point x="300" y="-114"/>
      <point x="284" y="-114" type="curve" smooth="yes"/>
      <point x="257" y="-114"/>
      <point x="242" y="-103"/>
      <point x="242" y="-87" type="curve" smooth="yes"/>
      <point x="242" y="-61"/>
      <point x="265" y="-28"/>
      <point x="335" y="-10" type="curve" smooth="yes"/>
      <point x="395" y="5"/>
      <point x="470" y="41"/>
      <point x="520" y="130" type="curve"/>
      <point x="401" y="168" type="line"/>
      <point x="376" y="123"/>
      <point x="342" y="98"/>
      <point x="290" y="98" type="curve" smooth="yes"/>
      <point x="226" y="98"/>
      <point x="190" y="133"/>
      <point x="185" y="204" type="curve"/>
      <point x="540" y="204" type="line"/>
      <point x="546" y="236" type="line" smooth="yes"/>
      <point x="550" y="258"/>
      <point x="552" y="278"/>
      <point x="552" y="299" type="curve" smooth="yes"/>
      <point x="552" y="425"/>
      <point x="469" y="512"/>
      <point x="336" y="512" type="curve" smooth="yes"/>
      <point x="160" y="512"/>
      <point x="45" y="375"/>
    </contour>
    <contour>
      <point x="202" y="308" type="line"/>
      <point x="223" y="359"/>
      <point x="263" y="400"/>
      <point x="327" y="400" type="curve" smooth="yes"/>
      <point x="384" y="400"/>
      <point x="413" y="371"/>
      <point x="415" y="308" type="curve"/>
    </contour>
  </outline>
</glyph>
<glyph name="Hbar" format="2">
  <advance width="760"/>
  <unicode hex="0126"/>
  <outline>
    <contour>
      <point x="61" y="500" type="line"/>
      <point x="787" y="500" type="line"/>
      <point x="806" y="608" type="line"/>
      <point x="80" y="608" type="line"/>
    </contour>
    <contour>
      <point x="147" y="279" type="line"/>
      <point x="624" y="279" type="line"/>
      <point x="646" y="403" type="line"/>
      <point x="169" y="403" type="line"/>
    </contour>
    <contour>
      <point x="609" y="700" type="line"/>
      <point x="486" y="0" type="line"/>
      <point x="637" y="0" type="line"/>
      <point x="760" y="700" type="line"/>
    </contour>
    <contour>
      <point x="158" y="700" type="line"/>
      <point x="35" y="0" type="line"/>
      <point x="186" y="0" type="line"/>
      <point x="309" y="700" type="line"/>
    </contour>
  </outline>
</glyph>
<glyph name="Itilde" format="2">
  <advance width="350"/>
  <unicode hex="0128"/>
  <outline>
    <contour>
      <point x="217" y="891" type="curve" smooth="yes"/>
      <point x="162" y="891"/>
      <point x="119" y="844"/>
      <point x="101" y="760" type="curve"/>
      <point x="193" y="760" type="line"/>
      <point x="199" y="780"/>
      <point x="205" y="795"/>
      <point x="220" y="795" type="curve" smooth="yes"/>
      <point x="242" y="795"/>
      <point x="295" y="765"/>
      <point x="338" y="765" type="curve" smooth="yes"/>
      <point x="392" y="765"/>
      <point x="435" y="812"/>
      <point x="453" y="896" type="curve"/>
      <point x="360" y="896" type="line"/>
      <point x="354" y="876"/>
      <point x="349" y="862"/>
      <point x="334" y="862" type="curve" smooth="yes"/>
      <point x="312" y="862"/>
      <point x="259" y="891"/>
    </contour>
    <component base="I"/>
  </outline>
</glyph>
<glyph name="imacron" format="2">
  <advance width="350"/>
  <unicode hex="012B"/>
  <outline>
    <contour>
      <point x="77" y="587" type="line"/>
      <point x="387" y="587" type="line"/>
      <point x="405" y="688" type="line"/>
      <point x="95" y="688" type="line"/>
    </contour>
    <component base="dotlessi"/>
  </outline>
</glyph>
<glyph name="dotlessi" format="2">
  <advance width="350"/>
  <unicode hex="0131"/>
  <outline>
    <contour>
      <point x="80" y="107" type="line"/>
      <point x="61" y="0" type="line"/>
      <point x="201" y="0" type="line"/>
      <point x="220" y="107" type="line"/>
    </contour>
    <contour>
      <point x="149" y="500" type="line"/>
      <point x="130" y="393" type="line"/>
      <point x="270" y="393" type="line"/>
      <point x="289" y="500" type="line"/>
    </contour>
    <contour>
      <point x="149" y="500" type="line"/>
      <point x="61" y="0" type="line"/>
      <point x="201" y="0" type="line"/>
      <point x="289" y="500" type="line"/>
    </contour>
  </outline>
</glyph>
<glyph name="IJ" format="2">
  <advance width="760"/>
  <unicode hex="0132"/>
  <outline>
    <contour>
      <point x="144" y="700" type="line"/>
      <point x="21" y="0" type="line"/>
      <point x="172" y="0" type="line"/>
      <point x="295" y="700" type="line"/>
    </contour>
    <contour>
      <point x="679" y="160" type="curve" smooth="yes"/>
      <point x="774" y="700" type="line"/>
      <point x="624" y="700" type="line"/>
      <point x="532" y="177" type="line" smooth="yes"/>
      <point x="524" y="133"/>
      <point x="502" y="109"/>
      <point x="464" y="109" type="curve" smooth="yes"/>
      <point x="416" y="109"/>
      <point x="390" y="138"/>
      <point x="395" y="183" type="curve"/>
      <point x="248" y="200" type="line"/>
      <point x="232" y="80"/>
      <point x="321" y="-12"/>
      <point x="455" y="-12" type="curve" smooth="yes"/>
      <point x="579" y="-12"/>
      <point x="661" y="56"/>
    </contour>
  </outline>
</glyph>
<glyph name="ldot" format="2">
  <advance width="350"/>
  <unicode hex="0140"/>
  <outline>
    <contour>
      <point x="319" y="446" type="line"/>
      <point x="293" y="303" type="line"/>
      <point x="424" y="303" type="line"/>
      <point x="450" y="446" type="line"/>
    </contour>
    <component base="l"/>
  </outline>
</glyph>
<glyph name="Lslash" format="2">
  <advance width="600"/>
  <unicode hex="0141"/>
  <outline>
    <contour>
      <point x="8" y="174" type="line"/>
      <point x="438" y="353" type="line"/>
      <point x="462" y="488" type="line"/>
      <point x="31" y="309" type="line"/>
    </contour>
    <component base="L" xOffset="21"/>
  </outline>
</glyph>
<glyph name="eng" format="2">
  <advance width="600"/>
  <unicode hex="014B"/>
  <outline>
    <contour>
      <point x="483" y="-74" type="curve" smooth="yes"/>
      <point x="553" y="321" type="line" smooth="yes"/>
      <point x="556" y="336"/>
      <point x="557" y="350"/>
      <point x="557" y="363" type="curve" smooth="yes"/>
      <point x="557" y="458"/>
      <point x="494" y="512"/>
      <point x="400" y="512" type="curve" smooth="yes"/>
      <point x="334" y="512"/>
      <point x="282" y="482"/>
      <point x="244" y="435" type="curve"/>
      <point x="255" y="500" type="line"/>
      <point x="115" y="500" type="line"/>
      <point x="27" y="0" type="line"/>
      <point x="167" y="0" type="line"/>
      <point x="219" y="292" type="line" smooth="yes"/>
      <point x="230" y="352"/>
      <point x="274" y="391"/>
      <point x="331" y="391" type="curve" smooth="yes"/>
      <point x="383" y="391"/>
      <point x="410" y="357"/>
      <point x="410" y="313" type="curve" smooth="yes"/>
      <point x="410" y="307"/>
      <point x="409" y="301"/>
      <point x="408" y="294" type="curve" smooth="yes"/>
      <point x="350" y="-35" type="line" smooth="yes"/>
      <point x="344" y="-68"/>
      <point x="332" y="-81"/>
      <point x="304" y="-81" type="curve" smooth="yes"/>
      <point x="295" y="-81"/>
      <point x="287" y="-80"/>
      <point x="273" y="-78" type="curve"/>
      <point x="256" y="-180" type="line"/>
      <point x="270" y="-185"/>
      <point x="301" y="-190"/>
      <point x="329" y="-190" type="curve" smooth="yes"/>
      <point x="394" y="-190"/>
      <point x="467" y="-164"/>
    </contour>
  </outline>
</glyph>
<glyph name="OE" format="2">
  <advance width="760"/>
  <unicode hex="0152"/>
  <outline>
    <contour>
      <point x="58" y="359" type="curve" smooth="yes"/>
      <point x="31" y="193"/>
      <point x="43" y="-12"/>
      <point x="223" y="-12" type="curve" smooth="yes"/>
      <point x="281" y="-12"/>
      <point x="327" y="13"/>
      <point x="364" y="61" type="curve"/>
      <point x="353" y="0" type="line"/>
      <point x="686" y="0" type="line"/>
      <point x="708" y="124" type="line"/>
      <point x="491" y="124" type="line"/>
      <point x="521" y="294" type="line"/>
      <point x="654" y="294" type="line"/>
      <point x="675" y="417" type="line"/>
      <point x="543" y="417" type="line"/>
      <point x="571" y="576" type="line"/>
      <point x="773" y="576" type="line"/>
      <point x="795" y="700" type="line"/>
      <point x="476" y="700" type="line"/>
      <point x="461" y="614" type="line"/>
      <point x="440" y="672"/>
      <point x="398" y="712"/>
      <point x="325" y="712" type="curve" smooth="yes"/>
      <point x="166" y="712"/>
      <point x="87" y="519"/>
    </contour>
    <contour>
      <point x="404" y="352" type="curve" smooth="yes"/>
      <point x="384" y="243"/>
      <point x="340" y="112"/>
      <point x="262" y="112" type="curve" smooth="yes"/>
      <point x="163" y="112"/>
      <point x="177" y="258"/>
      <point x="192" y="348" type="curve" smooth="yes"/>
      <point x="211" y="458"/>
      <point x="257" y="588"/>
      <point x="335" y="588" type="curve" smooth="yes"/>
      <point x="432" y="588"/>
      <point x="419" y="449"/>
    </contour>
  </outline>
</glyph>
<glyph name="oe" format="2">
  <advance width="760"/>
  <unicode hex="0153"/>
  <outline>
    <contour>
      <point x="567" y="512" type="curve" smooth="yes"/>
      <point x="408" y="512"/>
      <point x="334" y="308"/>
      <point x="334" y="174" type="curve" smooth="yes"/>
      <point x="334" y="54"/>
      <point x="395" y="-12"/>
      <point x="503" y="-12" type="curve" smooth="yes"/>
      <point x="582" y="-12"/>
      <point x="661" y="30"/>
      <point x="702" y="134" type="curve"/>
      <point x="585" y="166" type="line"/>
      <point x="566" y="116"/>
      <point x="542" y="98"/>
      <point x="508" y="98" type="curve" smooth="yes"/>
      <point x="469" y="98"/>
      <point x="442" y="119"/>
      <point x="442" y="185" type="curve" smooth="yes"/>
      <point x="442" y="248"/>
      <point x="472" y="400"/>
      <point x="551" y="400" type="curve" smooth="yes"/>
      <point x="587" y="400"/>
      <point x="610" y="377"/>
      <point x="610" y="322" type="curve" smooth="yes"/>
      <point x="610" y="302"/>
      <point x="607" y="280"/>
      <point x="602" y="250" type="curve"/>
      <point x="672" y="308" type="line"/>
      <point x="384" y="308" type="line"/>
      <point x="366" y="205" type="line"/>
      <point x="719" y="205" type="line"/>
      <point x="725" y="237" type="line" smooth="yes"/>
      <point x="730" y="266"/>
      <point x="732" y="286"/>
      <point x="732" y="319" type="curve" smooth="yes"/>
      <point x="732" y="446"/>
      <point x="666" y="512"/>
    </contour>
    <contour>
      <point x="325" y="316" type="curve" smooth="yes"/>
      <point x="325" y="254"/>
      <point x="295" y="100"/>
      <point x="217" y="100" type="curve" smooth="yes"/>
      <point x="180" y="100"/>
      <point x="155" y="124"/>
      <point x="155" y="183" type="curve" smooth="yes"/>
      <point x="155" y="246"/>
      <point x="185" y="398"/>
      <point x="263" y="398" type="curve" smooth="yes"/>
      <point x="301" y="398"/>
      <point x="325" y="375"/>
    </contour>
    <contour>
      <point x="273" y="512" type="curve" smooth="yes"/>
      <point x="99" y="512"/>
      <point x="27" y="318"/>
      <point x="27" y="184" type="curve" smooth="yes"/>
      <point x="27" y="47"/>
      <point x="105" y="-12"/>
      <point x="203" y="-12" type="curve" smooth="yes"/>
      <point x="372" y="-12"/>
      <point x="437" y="188"/>
      <point x="437" y="319" type="curve" smooth="yes"/>
      <point x="437" y="446"/>
      <point x="373" y="512"/>
    </contour>
  </outline>
</glyph>
<glyph name="Tbar" format="2">
  <advance width="680"/>
  <unicode hex="0166"/>
  <outline>
    <contour>
      <point x="122" y="281" type="line"/>
      <point x="563" y="281" type="line"/>
      <point x="585" y="403" type="line"/>
      <point x="144" y="403" type="line"/>
    </contour>
    <contour>
      <point x="336" y="651" type="line"/>
      <point x="221" y="0" type="line"/>
      <point x="372" y="0" type="line"/>
      <point x="487" y="651" type="line"/>
    </contour>
    <contour>
      <point x="78" y="576" type="line"/>
      <point x="717" y="576" type="line"/>
      <point x="739" y="700" type="line"/>
      <point x="100" y="700" type="line"/>
    </contour>
  </outline>
</glyph>
<glyph name="Bhook" format="2">
  <advance width="760"/>
  <unicode hex="0181"/>
  <outline>
    <contour>
      <point x="317" y="700" type="line"/>
      <point x="193" y="0" type="line"/>
      <point x="342" y="0" type="line"/>
      <point x="466" y="700" type="line"/>
    </contour>
    <contour>
      <point x="445" y="0" type="line" smooth="yes"/>
      <point x="629" y="0"/>
      <point x="726" y="121"/>
      <point x="726" y="233" type="curve" smooth="yes"/>
      <point x="726" y="308"/>
      <point x="681" y="347"/>
      <point x="633" y="370" type="curve"/>
      <point x="630" y="352" type="line"/>
      <point x="698" y="370"/>
      <point x="763" y="433"/>
      <point x="763" y="531" type="curve" smooth="yes"/>
      <point x="763" y="628"/>
      <point x="698" y="700"/>
      <point x="569" y="700" type="curve" smooth="yes"/>
      <point x="381" y="700" type="line"/>
      <point x="359" y="577" type="line"/>
      <point x="536" y="577" type="line" smooth="yes"/>
      <point x="583" y="577"/>
      <point x="616" y="556"/>
      <point x="616" y="511" type="curve" smooth="yes"/>
      <point x="616" y="469"/>
      <point x="585" y="420"/>
      <point x="512" y="420" type="curve" smooth="yes"/>
      <point x="330" y="420" type="line"/>
      <point x="309" y="298" type="line"/>
      <point x="488" y="298" type="line" smooth="yes"/>
      <point x="534" y="298"/>
      <point x="576" y="277"/>
      <point x="576" y="223" type="curve" smooth="yes"/>
      <point x="576" y="160"/>
      <point x="523" y="123"/>
      <point x="459" y="123" type="curve" smooth="yes"/>
      <point x="279" y="123" type="line"/>
      <point x="257" y="0" type="line"/>
    </contour>
    <contour>
      <point x="402" y="700" type="line"/>
      <point x="311" y="700" type="line" smooth="yes"/>
      <point x="126" y="700"/>
      <point x="48" y="570"/>
      <point x="48" y="460" type="curve" smooth="yes"/>
      <point x="48" y="430"/>
      <point x="56" y="400"/>
      <point x="68" y="377" type="curve"/>
      <point x="206" y="377" type="line"/>
      <point x="194" y="404"/>
      <point x="187" y="433"/>
      <point x="187" y="459" type="curve" smooth="yes"/>
      <point x="187" y="519"/>
      <point x="219" y="576"/>
      <point x="293" y="576" type="curve" smooth="yes"/>
      <point x="380" y="576" type="line"/>
    </contour>
  </outline>
</glyph>
<glyph name="Dhook" format="2">
  <advance width="760"/>
  <unicode hex="018A"/>
  <outline>
    <contour>
      <point x="404" y="700" type="line"/>
      <point x="311" y="700" type="line" smooth="yes"/>
      <point x="126" y="700"/>
      <point x="48" y="570"/>
      <point x="48" y="460" type="curve" smooth="yes"/>
      <point x="48" y="430"/>
      <point x="56" y="400"/>
      <point x="68" y="377" type="curve"/>
      <point x="206" y="377" type="line"/>
      <point x="194" y="404"/>
      <point x="187" y="433"/>
      <point x="187" y="459" type="curve" smooth="yes"/>
      <point x="187" y="519"/>
      <point x="219" y="576"/>
      <point x="293" y="576" type="curve" smooth="yes"/>
      <point x="382" y="576" type="line"/>
    </contour>
    <contour>
      <point x="192" y="0" type="line"/>
      <point x="342" y="0" type="line"/>
      <point x="466" y="700" type="line"/>
      <point x="316" y="700" type="line"/>
    </contour>
    <contour>
      <point x="276" y="123" type="line"/>
      <point x="254" y="0" type="line"/>
      <point x="368" y="0" type="line" smooth="yes"/>
      <point x="627" y="0"/>
      <point x="760" y="180"/>
      <point x="760" y="402" type="curve" smooth="yes"/>
      <point x="760" y="574"/>
      <point x="662" y="700"/>
      <point x="490" y="700" type="curve" smooth="yes"/>
      <point x="378" y="700" type="line"/>
      <point x="356" y="577" type="line"/>
      <point x="466" y="577" type="line" smooth="yes"/>
      <point x="551" y="577"/>
      <point x="606" y="525"/>
      <point x="606" y="396" type="curve" smooth="yes"/>
      <point x="606" y="243"/>
      <point x="523" y="123"/>
      <point x="386" y="123" type="curve" smooth="yes"/>
    </contour>
  </outline>
</glyph>
<glyph name="Eopen" format="2">
  <advance width="680"/>
  <unicode hex="0190"/>
  <outline>
    <contour>
      <point x="630" y="211" type="curve"/>
      <point x="480" y="207" type="line"/>
      <point x="471" y="144"/>
      <point x="427" y="107"/>
      <point x="333" y="107" type="curve" smooth="yes"/>
      <point x="241" y="107"/>
      <point x="196" y="143"/>
      <point x="196" y="197" type="curve" smooth="yes"/>
      <point x="196" y="259"/>
      <point x="255" y="303"/>
      <point x="351" y="303" type="curve" smooth="yes"/>
      <point x="433" y="303" type="line"/>
      <point x="454" y="421" type="line"/>
      <point x="385" y="421" type="line" smooth="yes"/>
      <point x="313" y="421"/>
      <point x="267" y="448"/>
      <point x="267" y="498" type="curve" smooth="yes"/>
      <point x="267" y="541"/>
      <point x="303" y="594"/>
      <point x="399" y="594" type="curve" smooth="yes"/>
      <point x="484" y="594"/>
      <point x="523" y="556"/>
      <point x="523" y="505" type="curve" smooth="yes"/>
      <point x="523" y="499"/>
      <point x="523" y="493"/>
      <point x="522" y="487" type="curve"/>
      <point x="671" y="481" type="line"/>
      <point x="673" y="493"/>
      <point x="674" y="506"/>
      <point x="674" y="520" type="curve" smooth="yes"/>
      <point x="674" y="643"/>
      <point x="567" y="712"/>
      <point x="410" y="712" type="curve" smooth="yes"/>
      <point x="230" y="712"/>
      <point x="112" y="613"/>
      <point x="112" y="496" type="curve" smooth="yes"/>
      <point x="112" y="422"/>
      <point x="165" y="384"/>
      <point x="224" y="367" type="curve"/>
      <point x="225" y="373" type="line"/>
      <point x="114" y="358"/>
      <point x="40" y="285"/>
      <point x="40" y="182" type="curve" smooth="yes"/>
      <point x="40" y="62"/>
      <point x="141" y="-12"/>
      <point x="321" y="-12" type="curve" smooth="yes"/>
      <point x="485" y="-12"/>
      <point x="609" y="55"/>
    </contour>
  </outline>
</glyph>
<glyph name="Yhook" format="2">
  <advance width="680"/>
  <unicode hex="01B3"/>
  <outline>
    <contour>
      <point x="611" y="541" type="line" smooth="yes"/>
      <point x="634" y="571"/>
      <point x="656" y="584"/>
      <point x="678" y="584" type="curve" smooth="yes"/>
      <point x="691" y="584"/>
      <point x="704" y="579"/>
      <point x="721" y="572" type="curve"/>
      <point x="747" y="695" type="line"/>
      <point x="728" y="705"/>
      <point x="698" y="712"/>
      <point x="670" y="712" type="curve" smooth="yes"/>
      <point x="605" y="712"/>
      <point x="558" y="683"/>
      <point x="519" y="631" type="curve" smooth="yes"/>
      <point x="293" y="338" type="line"/>
      <point x="402" y="338" type="line"/>
      <point x="256" y="700" type="line"/>
      <point x="104" y="700" type="line"/>
      <point x="271" y="293" type="line"/>
      <point x="220" y="0" type="line"/>
      <point x="371" y="0" type="line"/>
      <point x="422" y="293" type="line"/>
    </contour>
  </outline>
</glyph>
<glyph name="Icaron" format="2">
  <advance width="350"/>
  <unicode hex="01CF"/>
  <outline>
    <contour>
      <point x="335" y="760" type="line"/>
      <point x="479" y="892" type="line"/>
      <point x="352" y="892" type="line"/>
      <point x="216" y="807" type="line"/>
      <point x="324" y="807" type="line"/>
      <point x="218" y="892" type="line"/>
      <point x="99" y="892" type="line"/>
      <point x="195" y="760" type="line"/>
    </contour>
    <component base="I"/>
  </outline>
</glyph>
<glyph name="Oogonek" format="2">
  <advance width="760"/>
  <unicode hex="01EA"/>
  <outline>
    <contour>
      <point x="743" y="412" type="curve" smooth="yes"/>
      <point x="743" y="594"/>
      <point x="625" y="712"/>
      <point x="443" y="712" type="curve" smooth="yes"/>
      <point x="201" y="712"/>
      <point x="52" y="508"/>
      <point x="52" y="288" type="curve" smooth="yes"/>
      <point x="52" y="126"/>
      <point x="145" y="15"/>
      <point x="294" y="-8" type="curve"/>
      <point x="254" y="-32"/>
      <point x="208" y="-73"/>
      <point x="208" y="-128" type="curve" smooth="yes"/>
      <point x="208" y="-175"/>
      <point x="253" y="-204"/>
      <point x="335" y="-204" type="curve" smooth="yes"/>
      <point x="357" y="-204"/>
      <point x="386" y="-202"/>
      <point x="408" y="-197" type="curve"/>
      <point x="423" y="-110" type="line"/>
      <point x="402" y="-114"/>
      <point x="386" y="-116"/>
      <point x="368" y="-116" type="curve" smooth="yes"/>
      <point x="341" y="-115"/>
      <point x="328" y="-106"/>
      <point x="328" y="-90" type="curve" smooth="yes"/>
      <point x="328" y="-60"/>
      <point x="368" y="-24"/>
      <point x="424" y="-11" type="curve" smooth="yes"/>
      <point x="625" y="37"/>
      <point x="743" y="212"/>
    </contour>
    <contour>
      <point x="364" y="116" type="curve" smooth="yes"/>
      <point x="269" y="116"/>
      <point x="207" y="180"/>
      <point x="207" y="295" type="curve" smooth="yes"/>
      <point x="207" y="443"/>
      <point x="293" y="584"/>
      <point x="431" y="584" type="curve" smooth="yes"/>
      <point x="526" y="584"/>
      <point x="588" y="520"/>
      <point x="588" y="405" type="curve" smooth="yes"/>
      <point x="588" y="257"/>
      <point x="502" y="116"/>
    </contour>
  </outline>
</glyph>
<glyph name="gravecmb" format="2">
  <advance width="600"/>
  <unicode hex="0300"/>
  <outline>
    <contour>
      <point x="402" y="700" type="line"/>
      <point x="438" y="564" type="line"/>
      <point x="339" y="564" type="line"/>
      <point x="275" y="700" type="line"/>
    </contour>
  </outline>
</glyph>
<glyph name="circumflexcmb" format="2">
  <advance width="600"/>
  <unicode hex="0302"/>
  <outline>
    <contour>
      <point x="311" y="700" type="line"/>
      <point x="177" y="564" type="line"/>
      <point x="294" y="564" type="line"/>
      <point x="427" y="662" type="line"/>
      <point x="321" y="662" type="line"/>
      <point x="420" y="564" type="line"/>
      <point x="531" y="564" type="line"/>
      <point x="445" y="700" type="line"/>
    </contour>
  </outline>
</glyph>
<glyph name="tildecmb" format="2">
  <advance width="600"/>
  <unicode hex="0303"/>
  <outline>
    <contour>
      <point x="308" y="694" type="curve" smooth="yes"/>
      <point x="252" y="694"/>
      <point x="211" y="646"/>
      <point x="194" y="564" type="curve"/>
      <point x="284" y="564" type="line"/>
      <point x="290" y="584"/>
      <point x="297" y="599"/>
      <point x="312" y="599" type="curve" smooth="yes"/>
      <point x="334" y="599"/>
      <point x="385" y="569"/>
      <point x="424" y="569" type="curve"/>
      <point x="480" y="569"/>
      <point x="520" y="617"/>
      <point x="538" y="699" type="curve"/>
      <point x="447" y="699" type="line"/>
      <point x="441" y="679"/>
      <point x="435" y="664"/>
      <point x="420" y="664" type="curve" smooth="yes"/>
      <point x="398" y="664"/>
      <point x="347" y="694"/>
    </contour>
  </outline>
</glyph>
<glyph name="dieresiscmb" format="2">
  <advance width="600"/>
  <unicode hex="0308"/>
  <outline>
    <contour>
      <point x="212" y="700" type="line"/>
      <point x="188" y="564" type="line"/>
      <point x="328" y="564" type="line"/>
      <point x="352" y="700" type="line"/>
    </contour>
    <contour>
      <point x="404" y="700" type="line"/>
      <point x="380" y="564" type="line"/>
      <point x="520" y="564" type="line"/>
      <point x="544" y="700" type="line"/>
    </contour>
  </outline>
</glyph>
<glyph name="commaaccentbelowcmb" format="2">
  <advance width="600"/>
  <unicode hex="0326"/>
  <outline>
    <contour>
      <point x="171" y="-64" type="line"/>
      <point x="147" y="-200" type="line"/>
      <point x="213" y="-200" type="line"/>
      <point x="212" y="-202" type="line" smooth="yes"/>
      <point x="206" y="-241"/>
      <point x="187" y="-271"/>
      <point x="122" y="-271" type="curve"/>
      <point x="111" y="-334" type="line"/>
      <point x="228" y="-334"/>
      <point x="278" y="-273"/>
      <point x="290" y="-202" type="curve" smooth="yes"/>
      <point x="315" y="-64" type="line"/>
    </contour>
  </outline>
</glyph>
<glyph name="overlaystrokeshortcmb" format="2">
  <advance width="600"/>
  <unicode hex="0335"/>
  <outline>
    <contour>
      <point x="32" y="296" type="line"/>
      <point x="335" y="296" type="line"/>
      <point x="357" y="420" type="line"/>
      <point x="54" y="420" type="line"/>
    </contour>
  </outline>
</glyph>
<glyph name="rlinebelow" format="2">
  <advance width="350"/>
  <unicode hex="1E5F"/>
  <outline>
    <contour>
      <point x="-88" y="-178" type="line"/>
      <point x="158" y="-178" type="line"/>
      <point x="175" y="-77" type="line"/>
      <point x="-71" y="-77" type="line"/>
    </contour>
    <component base="r"/>
  </outline>
</glyph>
<glyph name="Uhornacute" format="2">
  <advance width="760"/>
  <unicode hex="1EE8"/>
  <outline>
    <contour>
      <point x="685" y="258" type="curve" smooth="yes"/>
      <point x="763" y="700" type="line"/>
      <point x="618" y="700" type="line"/>
      <point x="542" y="271" type="line" smooth="yes"/>
      <point x="525" y="177"/>
      <point x="463" y="117"/>
      <point x="366" y="117" type="curve" smooth="yes"/>
      <point x="277" y="117"/>
      <point x="224" y="169"/>
      <point x="224" y="247" type="curve" smooth="yes"/>
      <point x="224" y="258"/>
      <point x="225" y="270"/>
      <point x="227" y="283" type="curve" smooth="yes"/>
      <point x="301" y="700" type="line"/>
      <point x="155" y="700" type="line"/>
      <point x="81" y="280" type="line" smooth="yes"/>
      <point x="77" y="259"/>
      <point x="75" y="238"/>
      <point x="75" y="219" type="curve" smooth="yes"/>
      <point x="75" y="78"/>
      <point x="175" y="-12"/>
      <point x="354" y="-12" type="curve" smooth="yes"/>
      <point x="548" y="-12"/>
      <point x="656" y="93"/>
    </contour>
    <contour>
      <point x="795" y="791" type="line"/>
      <point x="794" y="782"/>
      <point x="794" y="779"/>
      <point x="793" y="774" type="curve" smooth="yes"/>
      <point x="784" y="722"/>
      <point x="772" y="700"/>
      <point x="726" y="700" type="curve" smooth="yes"/>
      <point x="649" y="700" type="line"/>
      <point x="632" y="601" type="line"/>
      <point x="711" y="601" type="line" smooth="yes"/>
      <point x="855" y="601"/>
      <point x="889" y="670"/>
      <point x="904" y="773" type="curve" smooth="yes"/>
      <point x="905" y="780"/>
      <point x="906" y="787"/>
      <point x="906" y="791" type="curve"/>
    </contour>
    <component base="acutecmb.uc" xOffset="110"/>
  </outline>
</glyph>
<glyph name="dagger" format="2">
  <advance width="350"/>
  <unicode hex="2020"/>
  <outline>
    <contour>
      <point x="124" y="280" type="line"/>
      <point x="236" y="280" type="line"/>
      <point x="310" y="700" type="line"/>
      <point x="198" y="700" type="line"/>
    </contour>
    <contour>
      <point x="81" y="598" type="line"/>
      <point x="65" y="506" type="line"/>
      <point x="375" y="506" type="line"/>
      <point x="391" y="598" type="line"/>
    </contour>
  </outline>
</glyph>
<glyph name="ellipsis" format="2">
  <advance width="760"/>
  <unicode hex="2026"/>
  <outline>
    <contour>
      <point x="37" y="148" type="line"/>
      <point x="11" y="0" type="line"/>
      <point x="155" y="0" type="line"/>
      <point x="181" y="148" type="line"/>
    </contour>
    <contour>
      <point x="290" y="148" type="line"/>
      <point x="264" y="0" type="line"/>
      <point x="408" y="0" type="line"/>
      <point x="434" y="148" type="line"/>
    </contour>
    <contour>
      <point x="543" y="148" type="line"/>
      <point x="517" y="0" type="line"/>
      <point x="661" y="0" type="line"/>
      <point x="687" y="148" type="line"/>
    </contour>
  </outline>
</glyph>
<glyph name="perthousand" format="2">
  <advance width="760"/>
  <unicode hex="2030"/>
  <outline>
    <contour>
      <point x="204" y="473" type="curve" smooth="yes"/>
      <point x="184" y="473"/>
      <point x="172" y="487"/>
      <point x="172" y="520" type="curve" smooth="yes"/>
      <point x="172" y="551"/>
      <point x="188" y="623"/>
      <point x="229" y="623" type="curve" smooth="yes"/>
      <point x="248" y="623"/>
      <point x="260" y="608"/>
      <point x="260" y="575" type="curve" smooth="yes"/>
      <point x="260" y="548"/>
      <point x="243" y="473"/>
    </contour>
    <contour>
      <point x="310" y="71" type="curve" smooth="yes"/>
      <point x="292" y="71"/>
      <point x="281" y="83"/>
      <point x="281" y="114" type="curve" smooth="yes"/>
      <point x="281" y="142"/>
      <point x="296" y="209"/>
      <point x="333" y="209" type="curve" smooth="yes"/>
      <point x="351" y="209"/>
      <point x="362" y="195"/>
      <point x="362" y="165" type="curve" smooth="yes"/>
      <point x="362" y="140"/>
      <point x="346" y="71"/>
    </contour>
    <contour>
      <point x="577" y="71" type="curve" smooth="yes"/>
      <point x="558" y="71"/>
      <point x="547" y="83"/>
      <point x="547" y="114" type="curve" smooth="yes"/>
      <point x="547" y="142"/>
      <point x="562" y="209"/>
      <point x="600" y="209" type="curve" smooth="yes"/>
      <point x="617" y="209"/>
      <point x="628" y="195"/>
      <point x="628" y="165" type="curve" smooth="yes"/>
      <point x="628" y="140"/>
      <point x="613" y="71"/>
    </contour>
    <contour>
      <point x="200" y="391" type="curve" smooth="yes"/>
      <point x="311" y="391"/>
      <point x="349" y="507"/>
      <point x="349" y="576" type="curve" smooth="yes"/>
      <point x="349" y="662"/>
      <point x="297" y="705"/>
      <point x="234" y="705" type="curve" smooth="yes"/>
      <point x="126" y="705"/>
      <point x="82" y="601"/>
      <point x="82" y="521" type="curve" smooth="yes"/>
      <point x="82" y="434"/>
      <point x="134" y="391"/>
    </contour>
    <contour>
      <point x="307" y="-5" type="curve" smooth="yes"/>
      <point x="409" y="-5"/>
      <point x="444" y="102"/>
      <point x="444" y="165" type="curve" smooth="yes"/>
      <point x="444" y="245"/>
      <point x="396" y="284"/>
      <point x="338" y="284" type="curve" smooth="yes"/>
      <point x="239" y="284"/>
      <point x="198" y="189"/>
      <point x="198" y="115" type="curve" smooth="yes"/>
      <point x="198" y="35"/>
      <point x="246" y="-5"/>
    </contour>
    <contour>
      <point x="573" y="-5" type="curve" smooth="yes"/>
      <point x="676" y="-5"/>
      <point x="711" y="102"/>
      <point x="711" y="165" type="curve" smooth="yes"/>
      <point x="711" y="245"/>
      <point x="663" y="284"/>
      <point x="605" y="284" type="curve" smooth="yes"/>
      <point x="505" y="284"/>
      <point x="464" y="189"/>
      <point x="464" y="115" type="curve" smooth="yes"/>
      <point x="464" y="35"/>
      <point x="512" y="-5"/>
    </contour>
    <contour>
      <point x="760" y="635" type="line"/>
      <point x="52" y="269" type="line"/>
      <point x="34" y="175" type="line"/>
      <point x="743" y="541" type="line"/>
    </contour>
  </outline>
</glyph>
<glyph name="interrobang" format="2">
  <advance width="600"/>
  <unicode hex="203D"/>
  <outline>
    <contour>
      <point x="429" y="680" type="line"/>
      <point x="301" y="680" type="line"/>
      <point x="234" y="217" type="line"/>
      <point x="322" y="217" type="line"/>
    </contour>
    <contour>
      <point x="247" y="217" type="line"/>
      <point x="353" y="217" type="line"/>
      <point x="356" y="235" type="line" smooth="yes"/>
      <point x="365" y="282"/>
      <point x="384" y="312"/>
      <point x="448" y="345" type="curve" smooth="yes"/>
      <point x="513" y="378"/>
      <point x="569" y="429"/>
      <point x="584" y="503" type="curve" smooth="yes"/>
      <point x="611" y="635"/>
      <point x="509" y="712"/>
      <point x="366" y="712" type="curve" smooth="yes"/>
      <point x="230" y="712"/>
      <point x="136" y="641"/>
      <point x="100" y="521" type="curve"/>
      <point x="217" y="492" type="line"/>
      <point x="231" y="556"/>
      <point x="278" y="603"/>
      <point x="353" y="603" type="curve" smooth="yes"/>
      <point x="432" y="603"/>
      <point x="461" y="568"/>
      <point x="452" y="517" type="curve" smooth="yes"/>
      <point x="444" y="471"/>
      <point x="413" y="440"/>
      <point x="358" y="414" type="curve" smooth="yes"/>
      <point x="281" y="378"/>
      <point x="266" y="324"/>
      <point x="252" y="243" type="curve" smooth="yes"/>
    </contour>
    <contour>
      <point x="179" y="0" type="line"/>
      <point x="326" y="0" type="line"/>
      <point x="352" y="149" type="line"/>
      <point x="205" y="149" type="line"/>
    </contour>
  </outline>
</glyph>
<glyph name="colonmonetary" format="2">
  <advance width="600"/>
  <unicode hex="20A1"/>
  <outline>
    <contour>
      <point x="597" y="480" type="line"/>
      <point x="597" y="615"/>
      <point x="527" y="712"/>
      <point x="389" y="712" type="curve" smooth="yes"/>
      <point x="162" y="712"/>
      <point x="52" y="478"/>
      <point x="52" y="257" type="curve" smooth="yes"/>
      <point x="52" y="91"/>
      <point x="137" y="-12"/>
      <point x="283" y="-12" type="curve" smooth="yes"/>
      <point x="412" y="-12"/>
      <point x="511" y="75"/>
      <point x="554" y="202" type="curve"/>
      <point x="448" y="232" type="line"/>
      <point x="414" y="140"/>
      <point x="365" y="101"/>
      <point x="300" y="101" type="curve" smooth="yes"/>
      <point x="234" y="101"/>
      <point x="184" y="148"/>
      <point x="184" y="262" type="curve" smooth="yes"/>
      <point x="184" y="416"/>
      <point x="242" y="597"/>
      <point x="377" y="597" type="curve" smooth="yes"/>
      <point x="443" y="597"/>
      <point x="493" y="562"/>
      <point x="492" y="462" type="curve"/>
    </contour>
    <contour>
      <point x="102" y="-112" type="line"/>
      <point x="181" y="-112" type="line"/>
      <point x="424" y="797" type="line"/>
      <point x="345" y="797" type="line"/>
    </contour>
    <contour>
      <point x="211" y="-112" type="line"/>
      <point x="290" y="-112" type="line"/>
      <point x="533" y="797" type="line"/>
      <point x="454" y="797" type="line"/>
    </contour>
  </outline>
</glyph>
<glyph name="newsheqel" format="2">
  <advance width="760"/>
  <unicode hex="20AA"/>
  <outline>
    <contour>
      <point x="411" y="700" type="line" smooth="yes"/>
      <point x="538" y="700"/>
      <point x="581" y="638"/>
      <point x="560" y="519" type="curve" smooth="yes"/>
      <point x="496" y="158" type="line"/>
      <point x="384" y="158" type="line"/>
      <point x="448" y="518" type="line" smooth="yes"/>
      <point x="456" y="564"/>
      <point x="440" y="591"/>
      <point x="392" y="591" type="curve" smooth="yes"/>
      <point x="266" y="591" type="line"/>
      <point x="162" y="0" type="line"/>
      <point x="48" y="0" type="line"/>
      <point x="172" y="700" type="line"/>
    </contour>
    <contour>
      <point x="394" y="0" type="line" smooth="yes"/>
      <point x="259" y="0"/>
      <point x="214" y="61"/>
      <point x="235" y="181" type="curve" smooth="yes"/>
      <point x="299" y="542" type="line"/>
      <point x="411" y="542" type="line"/>
      <point x="347" y="182" type="line" smooth="yes"/>
      <point x="338" y="130"/>
      <point x="357" y="109"/>
      <point x="405" y="109" type="curve" smooth="yes"/>
      <point x="529" y="109" type="line"/>
      <point x="633" y="700" type="line"/>
      <point x="747" y="700" type="line"/>
      <point x="623" y="0" type="line"/>
    </contour>
  </outline>
</glyph>
<glyph name="notequal" format="2">
  <advance width="600"/>
  <unicode hex="2260"/>
  <outline>
    <contour>
      <point x="48" y="70" type="line"/>
      <point x="177" y="70" type="line"/>
      <point x="584" y="610" type="line"/>
      <point x="455" y="610" type="line"/>
    </contour>
    <component base="equal" identifier="228CB30A"/>
  </outline>
</glyph>
<glyph name="onesanscircled" format="2">
  <advance width="760"/>
  <unicode hex="2780"/>
  <outline>
    <contour>
      <point x="399" y="546" type="line"/>
      <point x="387" y="478"/>
      <point x="364" y="457"/>
      <point x="278" y="457" type="curve"/>
      <point x="263" y="373" type="line"/>
      <point x="359" y="373" type="line"/>
      <point x="320" y="154" type="line"/>
      <point x="430" y="154" type="line"/>
      <point x="500" y="546" type="line"/>
    </contour>
    <component base="circlewhite" identifier="8D808343"/>
  </outline>
</glyph>
<glyph name="twosanscircled" format="2">
  <advance width="760"/>
  <unicode hex="2781"/>
  <outline>
    <contour>
      <point x="229" y="242" type="curve"/>
      <point x="214" y="154" type="line"/>
      <point x="517" y="154" type="line"/>
      <point x="533" y="245" type="line"/>
      <point x="390" y="245" type="line"/>
      <point x="493" y="306"/>
      <point x="565" y="358"/>
      <point x="565" y="438" type="curve" smooth="yes"/>
      <point x="565" y="496"/>
      <point x="526" y="552"/>
      <point x="423" y="552" type="curve" smooth="yes"/>
      <point x="311" y="552"/>
      <point x="260" y="482"/>
      <point x="260" y="419" type="curve" smooth="yes"/>
      <point x="260" y="405"/>
      <point x="262" y="393"/>
      <point x="267" y="380" type="curve"/>
      <point x="371" y="389" type="line"/>
      <point x="368" y="398"/>
      <point x="366" y="407"/>
      <point x="366" y="415" type="curve" smooth="yes"/>
      <point x="366" y="442"/>
      <point x="384" y="465"/>
      <point x="414" y="465" type="curve" smooth="yes"/>
      <point x="435" y="465"/>
      <point x="451" y="452"/>
      <point x="451" y="428" type="curve" smooth="yes"/>
      <point x="451" y="382"/>
      <point x="390" y="349"/>
    </contour>
    <component base="circlewhite" identifier="54160264"/>
  </outline>
</glyph>
<glyph name="foursanscircled" format="2">
  <advance width="760"/>
  <unicode hex="2783"/>
  <outline>
    <contour>
      <point x="540" y="546" type="line"/>
      <point x="411" y="546" type="line"/>
      <point x="212" y="326" type="line"/>
      <point x="196" y="235" type="line"/>
      <point x="375" y="235" type="line"/>
      <point x="361" y="154" type="line"/>
      <point x="470" y="154" type="line"/>
      <point x="484" y="235" type="line"/>
      <point x="547" y="235" type="line"/>
      <point x="562" y="322" type="line"/>
      <point x="500" y="322" type="line"/>
    </contour>
    <contour>
      <point x="318" y="322" type="line"/>
      <point x="409" y="423" type="line"/>
      <point x="391" y="322" type="line"/>
    </contour>
    <component base="circlewhite" identifier="8E49EE45"/>
  </outline>
</glyph>
<glyph name="fivesanscircled" format="2">
  <advance width="760"/>
  <unicode hex="2784"/>
  <outline>
    <contour>
      <point x="543" y="314" type="curve" smooth="yes"/>
      <point x="543" y="377"/>
      <point x="505" y="420"/>
      <point x="436" y="420" type="curve" smooth="yes"/>
      <point x="407" y="420"/>
      <point x="384" y="412"/>
      <point x="365" y="400" type="curve"/>
      <point x="379" y="454" type="line"/>
      <point x="557" y="454" type="line"/>
      <point x="573" y="546" type="line"/>
      <point x="303" y="546" type="line"/>
      <point x="247" y="327" type="line"/>
      <point x="350" y="316" type="line"/>
      <point x="359" y="328"/>
      <point x="373" y="339"/>
      <point x="393" y="339" type="curve" smooth="yes"/>
      <point x="418" y="339"/>
      <point x="430" y="321"/>
      <point x="430" y="297" type="curve" smooth="yes"/>
      <point x="430" y="266"/>
      <point x="411" y="233"/>
      <point x="376" y="233" type="curve" smooth="yes"/>
      <point x="350" y="233"/>
      <point x="335" y="252"/>
      <point x="340" y="280" type="curve"/>
      <point x="228" y="294" type="line"/>
      <point x="227" y="287"/>
      <point x="226" y="278"/>
      <point x="226" y="269" type="curve" smooth="yes"/>
      <point x="226" y="189"/>
      <point x="287" y="148"/>
      <point x="375" y="148" type="curve" smooth="yes"/>
      <point x="498" y="148"/>
      <point x="543" y="231"/>
    </contour>
    <component base="circlewhite" identifier="95FC7A1A"/>
  </outline>
</glyph>
<glyph name="sixsanscircled" format="2">
  <advance width="760"/>
  <unicode hex="2785"/>
  <outline>
    <contour>
      <point x="367" y="149" type="curve" smooth="yes"/>
      <point x="485" y="149"/>
      <point x="541" y="234"/>
      <point x="541" y="312" type="curve" smooth="yes"/>
      <point x="541" y="377"/>
      <point x="501" y="415"/>
      <point x="434" y="415" type="curve" smooth="yes"/>
      <point x="402" y="415"/>
      <point x="374" y="405"/>
      <point x="352" y="388" type="curve"/>
      <point x="368" y="442"/>
      <point x="398" y="465"/>
      <point x="424" y="465" type="curve" smooth="yes"/>
      <point x="442" y="465"/>
      <point x="452" y="454"/>
      <point x="449" y="436" type="curve"/>
      <point x="556" y="425" type="line"/>
      <point x="557" y="431"/>
      <point x="558" y="439"/>
      <point x="558" y="444" type="curve" smooth="yes"/>
      <point x="558" y="512"/>
      <point x="515" y="552"/>
      <point x="436" y="552" type="curve"/>
      <point x="331" y="552"/>
      <point x="254" y="472"/>
      <point x="232" y="346" type="curve" smooth="yes"/>
      <point x="228" y="325"/>
      <point x="226" y="305"/>
      <point x="226" y="287" type="curve" smooth="yes"/>
      <point x="226" y="201"/>
      <point x="274" y="149"/>
    </contour>
    <contour>
      <point x="336" y="274" type="curve" smooth="yes"/>
      <point x="336" y="303"/>
      <point x="354" y="340"/>
      <point x="391" y="340" type="curve" smooth="yes"/>
      <point x="414" y="340"/>
      <point x="428" y="325"/>
      <point x="428" y="298" type="curve" smooth="yes"/>
      <point x="428" y="269"/>
      <point x="411" y="230"/>
      <point x="374" y="230" type="curve" smooth="yes"/>
      <point x="350" y="230"/>
      <point x="336" y="247"/>
    </contour>
    <component base="circlewhite" identifier="FF3EE0CF"/>
  </outline>
</glyph>
<glyph name="sevensanscircled" format="2">
  <advance width="760"/>
  <unicode hex="2786"/>
  <outline>
    <contour>
      <point x="275" y="546" type="line"/>
      <point x="246" y="385" type="line"/>
      <point x="347" y="385" type="line"/>
      <point x="360" y="456" type="line"/>
      <point x="453" y="456" type="line"/>
      <point x="358" y="361"/>
      <point x="288" y="270"/>
      <point x="262" y="154" type="curve"/>
      <point x="380" y="154" type="line"/>
      <point x="414" y="285"/>
      <point x="484" y="375"/>
      <point x="589" y="480" type="curve"/>
      <point x="601" y="546" type="line"/>
    </contour>
    <component base="circlewhite" identifier="8712A22C"/>
  </outline>
</glyph>
<glyph name="onesansnegativecircled" format="2">
  <advance width="760"/>
  <unicode hex="278A"/>
  <outline>
    <contour>
      <point x="399" y="546" type="curve"/>
      <point x="500" y="546" type="line"/>
      <point x="430" y="154" type="line"/>
      <point x="320" y="154" type="line"/>
      <point x="359" y="373" type="line"/>
      <point x="263" y="373" type="line"/>
      <point x="278" y="457" type="line"/>
      <point x="364" y="457"/>
      <point x="387" y="478"/>
    </contour>
    <component base="circleblack" identifier="14101950"/>
  </outline>
</glyph>
<glyph name="threesansnegativecircled" format="2">
  <advance width="760"/>
  <unicode hex="278C"/>
  <outline>
    <contour>
      <point x="227" y="294" type="curve"/>
      <point x="336" y="287" type="line"/>
      <point x="334" y="280"/>
      <point x="333" y="274"/>
      <point x="333" y="269" type="curve" smooth="yes"/>
      <point x="333" y="247"/>
      <point x="351" y="233"/>
      <point x="379" y="233" type="curve" smooth="yes"/>
      <point x="415" y="233"/>
      <point x="432" y="256"/>
      <point x="432" y="282" type="curve" smooth="yes"/>
      <point x="432" y="306"/>
      <point x="416" y="317"/>
      <point x="391" y="317" type="curve" smooth="yes"/>
      <point x="357" y="317" type="line"/>
      <point x="370" y="395" type="line"/>
      <point x="406" y="395" type="line" smooth="yes"/>
      <point x="431" y="395"/>
      <point x="449" y="412"/>
      <point x="449" y="435" type="curve" smooth="yes"/>
      <point x="449" y="459"/>
      <point x="428" y="467"/>
      <point x="412" y="467" type="curve" smooth="yes"/>
      <point x="383" y="467"/>
      <point x="363" y="447"/>
      <point x="362" y="420" type="curve"/>
      <point x="254" y="413" type="line"/>
      <point x="263" y="505"/>
      <point x="334" y="552"/>
      <point x="424" y="552" type="curve" smooth="yes"/>
      <point x="525" y="552"/>
      <point x="563" y="505"/>
      <point x="563" y="454" type="curve" smooth="yes"/>
      <point x="563" y="399"/>
      <point x="522" y="367"/>
      <point x="483" y="356" type="curve"/>
      <point x="520" y="344"/>
      <point x="543" y="320"/>
      <point x="543" y="281" type="curve" smooth="yes"/>
      <point x="543" y="208"/>
      <point x="482" y="148"/>
      <point x="373" y="148" type="curve" smooth="yes"/>
      <point x="287" y="148"/>
      <point x="222" y="186"/>
      <point x="222" y="260" type="curve" smooth="yes"/>
      <point x="222" y="271"/>
      <point x="224" y="282"/>
    </contour>
    <component base="circleblack" identifier="9AE145C0"/>
  </outline>
</glyph>
<glyph name="foursansnegativecircled" format="2">
  <advance width="760"/>
  <unicode hex="278D"/>
  <outline>
    <contour>
      <point x="540" y="546" type="line"/>
      <point x="500" y="322" type="line"/>
      <point x="562" y="322" type="line"/>
      <point x="547" y="235" type="line"/>
      <point x="484" y="235" type="line"/>
      <point x="470" y="154" type="line"/>
      <point x="361" y="154" type="line"/>
      <point x="375" y="235" type="line"/>
      <point x="196" y="235" type="line"/>
      <point x="212" y="326" type="line"/>
      <point x="411" y="546" type="line"/>
    </contour>
    <contour>
      <point x="318" y="322" type="line"/>
      <point x="391" y="322" type="line"/>
      <point x="409" y="423" type="line"/>
    </contour>
    <component base="circleblack" identifier="F826D03C"/>
  </outline>
</glyph>
<glyph name="fivesansnegativecircled" format="2">
  <advance width="760"/>
  <unicode hex="278E"/>
  <outline>
    <contour>
      <point x="543" y="314" type="curve" smooth="yes"/>
      <point x="543" y="231"/>
      <point x="498" y="148"/>
      <point x="375" y="148" type="curve" smooth="yes"/>
      <point x="287" y="148"/>
      <point x="226" y="189"/>
      <point x="226" y="269" type="curve" smooth="yes"/>
      <point x="226" y="278"/>
      <point x="227" y="287"/>
      <point x="228" y="294" type="curve"/>
      <point x="340" y="280" type="line"/>
      <point x="335" y="252"/>
      <point x="350" y="233"/>
      <point x="376" y="233" type="curve" smooth="yes"/>
      <point x="411" y="233"/>
      <point x="430" y="266"/>
      <point x="430" y="297" type="curve" smooth="yes"/>
      <point x="430" y="321"/>
      <point x="418" y="339"/>
      <point x="393" y="339" type="curve" smooth="yes"/>
      <point x="373" y="339"/>
      <point x="359" y="328"/>
      <point x="350" y="316" type="curve"/>
      <point x="247" y="327" type="line"/>
      <point x="303" y="546" type="line"/>
      <point x="573" y="546" type="line"/>
      <point x="557" y="454" type="line"/>
      <point x="379" y="454" type="line"/>
      <point x="365" y="400" type="line"/>
      <point x="384" y="412"/>
      <point x="407" y="420"/>
      <point x="436" y="420" type="curve" smooth="yes"/>
      <point x="505" y="420"/>
      <point x="543" y="377"/>
    </contour>
    <component base="circleblack" identifier="6B6BA165"/>
  </outline>
</glyph>
<glyph name="sevensansnegativecircled" format="2">
  <advance width="760"/>
  <unicode hex="2790"/>
  <outline>
    <contour>
      <point x="275" y="546" type="line"/>
      <point x="601" y="546" type="line"/>
      <point x="589" y="480" type="line"/>
      <point x="484" y="375"/>
      <point x="414" y="285"/>
      <point x="380" y="154" type="curve"/>
      <point x="262" y="154" type="line"/>
      <point x="288" y="270"/>
      <point x="358" y="361"/>
      <point x="453" y="456" type="curve"/>
      <point x="360" y="456" type="line"/>
      <point x="347" y="385" type="line"/>
      <point x="246" y="385" type="line"/>
    </contour>
    <component base="circleblack" identifier="A3CF075A"/>
  </outline>
</glyph>
<glyph name="tensansnegativecircled" format="2">
  <advance width="760"/>
  <unicode hex="2793"/>
  <outline>
    <contour>
      <point x="640" y="407" type="curve" smooth="yes"/>
      <point x="640" y="285"/>
      <point x="580" y="147"/>
      <point x="460" y="147" type="curve" smooth="yes"/>
      <point x="384" y="147"/>
      <point x="342" y="201"/>
      <point x="342" y="291" type="curve" smooth="yes"/>
      <point x="342" y="413"/>
      <point x="402" y="551"/>
      <point x="522" y="551" type="curve" smooth="yes"/>
      <point x="598" y="551"/>
      <point x="640" y="497"/>
    </contour>
    <contour>
      <point x="263" y="546" type="curve"/>
      <point x="360" y="546" type="line"/>
      <point x="290" y="154" type="line"/>
      <point x="184" y="154" type="line"/>
      <point x="227" y="395" type="line"/>
      <point x="168" y="395" type="line"/>
      <point x="183" y="479" type="line"/>
      <point x="238" y="479"/>
      <point x="254" y="499"/>
    </contour>
    <contour>
      <point x="472" y="237" type="curve" smooth="yes"/>
      <point x="514" y="237"/>
      <point x="536" y="347"/>
      <point x="536" y="413" type="curve" smooth="yes"/>
      <point x="536" y="445"/>
      <point x="528" y="461"/>
      <point x="510" y="461" type="curve" smooth="yes"/>
      <point x="468" y="461"/>
      <point x="446" y="351"/>
      <point x="446" y="285" type="curve" smooth="yes"/>
      <point x="446" y="253"/>
      <point x="454" y="237"/>
    </contour>
    <component base="circleblack" identifier="40BD25CE"/>
  </outline>
</glyph>
<glyph name="Euro.tab" format="2">
  <advance width="600"/>
  <outline>
    <contour>
      <point x="419" y="712" type="curve" smooth="yes"/>
      <point x="200" y="712"/>
      <point x="93" y="462"/>
      <point x="93" y="246" type="curve" smooth="yes"/>
      <point x="93" y="84"/>
      <point x="167" y="-12"/>
      <point x="310" y="-12" type="curve" smooth="yes"/>
      <point x="433" y="-12"/>
      <point x="532" y="75"/>
      <point x="575" y="202" type="curve"/>
      <point x="451" y="232" type="line"/>
      <point x="419" y="142"/>
      <point x="381" y="105"/>
      <point x="325" y="105" type="curve" smooth="yes"/>
      <point x="267" y="105"/>
      <point x="230" y="144"/>
      <point x="230" y="245" type="curve" smooth="yes"/>
      <point x="230" y="390"/>
      <point x="278" y="591"/>
      <point x="405" y="591" type="curve" smooth="yes"/>
      <point x="461" y="591"/>
      <point x="492" y="554"/>
      <point x="492" y="460" type="curve"/>
      <point x="617" y="480" type="line"/>
      <point x="617" y="615"/>
      <point x="547" y="712"/>
    </contour>
    <contour>
      <point x="50" y="379" type="line"/>
      <point x="393" y="379" type="line"/>
      <point x="430" y="473" type="line"/>
      <point x="67" y="473" type="line"/>
    </contour>
    <contour>
      <point x="24" y="233" type="line"/>
      <point x="335" y="233" type="line"/>
      <point x="373" y="327" type="line"/>
      <point x="41" y="327" type="line"/>
    </contour>
  </outline>
</glyph>
<glyph name="R.alt1" format="2">
  <advance width="680"/>
  <guideline x="356" y="830" angle="90" name="center" identifier="3nRtLkhZfo"/>
  <outline>
    <contour>
      <point x="147" y="700" type="line"/>
      <point x="23" y="0" type="line"/>
      <point x="173" y="0" type="line"/>
      <point x="297" y="700" type="line"/>
    </contour>
    <contour>
      <point x="683" y="519" type="curve" smooth="yes"/>
      <point x="683" y="638"/>
      <point x="610" y="700"/>
      <point x="475" y="700" type="curve" smooth="yes"/>
      <point x="225" y="700" type="line"/>
      <point x="203" y="577" type="line"/>
      <point x="440" y="577" type="line" smooth="yes"/>
      <point x="496" y="577"/>
      <point x="526" y="552"/>
      <point x="526" y="503" type="curve" smooth="yes"/>
      <point x="526" y="444"/>
      <point x="483" y="399"/>
      <point x="409" y="399" type="curve" smooth="yes"/>
      <point x="167" y="399" type="line"/>
      <point x="145" y="277" type="line"/>
      <point x="419" y="277" type="line" smooth="yes"/>
      <point x="444" y="277"/>
      <point x="462" y="257"/>
      <point x="462" y="211" type="curve" smooth="yes"/>
      <point x="462" y="187"/>
      <point x="441" y="77"/>
      <point x="441" y="46" type="curve" smooth="yes"/>
      <point x="441" y="28"/>
      <point x="444" y="13"/>
      <point x="453" y="0" type="curve"/>
      <point x="605" y="0" type="line"/>
      <point x="608" y="17" type="line"/>
      <point x="598" y="24"/>
      <point x="595" y="39"/>
      <point x="595" y="60" type="curve" smooth="yes"/>
      <point x="595" y="97"/>
      <point x="612" y="198"/>
      <point x="612" y="220" type="curve" smooth="yes"/>
      <point x="612" y="278"/>
      <point x="579" y="314"/>
      <point x="515" y="330" type="curve"/>
      <point x="510" y="303" type="line"/>
      <point x="634" y="324"/>
      <point x="683" y="421"/>
    </contour>
  </outline>
</glyph>
<glyph name="bar.uc" format="2">
  <advance width="350"/>
  <outline>
    <contour>
      <point x="191" y="745" type="line"/>
      <point x="45" y="-83" type="line"/>
      <point x="188" y="-83" type="line"/>
      <point x="334" y="745" type="line"/>
    </contour>
  </outline>
</glyph>
<glyph name="braceleft.uc" format="2">
  <advance width="600"/>
  <guideline x="206" y="172" angle="80" identifier="8Nr5tED8Bc"/>
  <outline>
    <contour>
      <point x="354" y="187" type="line"/>
      <point x="369" y="266"/>
      <point x="354" y="314"/>
      <point x="298" y="331" type="curve"/>
      <point x="370" y="341"/>
      <point x="390" y="386"/>
      <point x="402" y="455" type="curve" smooth="yes"/>
      <point x="421" y="566" type="line" smooth="yes"/>
      <point x="431" y="623"/>
      <point x="461" y="642"/>
      <point x="506" y="642" type="curve" smooth="yes"/>
      <point x="552" y="642" type="line"/>
      <point x="570" y="745" type="line"/>
      <point x="479" y="745" type="line" smooth="yes"/>
      <point x="376" y="745"/>
      <point x="296" y="679"/>
      <point x="279" y="584" type="curve" smooth="yes"/>
      <point x="258" y="465" type="line" smooth="yes"/>
      <point x="249" y="412"/>
      <point x="229" y="390"/>
      <point x="186" y="390" type="curve" smooth="yes"/>
      <point x="143" y="390" type="line"/>
      <point x="122" y="272" type="line"/>
      <point x="155" y="272" type="line" smooth="yes"/>
      <point x="200" y="272"/>
      <point x="220" y="250"/>
      <point x="209" y="187" type="curve" smooth="yes"/>
      <point x="193" y="98" type="line" smooth="yes"/>
      <point x="176" y="5"/>
      <point x="222" y="-83"/>
      <point x="357" y="-83" type="curve" smooth="yes"/>
      <point x="424" y="-83" type="line"/>
      <point x="442" y="21" type="line"/>
      <point x="409" y="21" type="line" smooth="yes"/>
      <point x="354" y="21"/>
      <point x="331" y="61"/>
      <point x="337" y="95" type="curve" smooth="yes"/>
    </contour>
  </outline>
</glyph>
<glyph name="caroncmb.alt" format="2">
  <advance width="600"/>
  <outline>
    <contour>
      <point x="338" y="700" type="line"/>
      <point x="302" y="540" type="line"/>
      <point x="407" y="540" type="line"/>
      <point x="463" y="700" type="line"/>
    </contour>
  </outline>
</glyph>
<glyph name="caroncmb.ucalt" format="2">
  <advance width="600"/>
  <outline>
    <contour>
      <point x="336" y="700" type="line"/>
      <point x="283" y="434" type="line"/>
      <point x="394" y="434" type="line"/>
      <point x="474" y="700" type="line"/>
    </contour>
  </outline>
</glyph>
<glyph name="colon.tab" format="2">
  <advance width="600"/>
  <outline>
    <contour>
      <point x="212" y="179" type="line"/>
      <point x="180" y="0" type="line"/>
      <point x="331" y="0" type="line"/>
      <point x="363" y="179" type="line"/>
    </contour>
    <contour>
      <point x="269" y="500" type="line"/>
      <point x="237" y="321" type="line"/>
      <point x="388" y="321" type="line"/>
      <point x="420" y="500" type="line"/>
    </contour>
  </outline>
</glyph>
<glyph name="dollar.tab" format="2">
  <advance width="600"/>
  <outline>
    <contour>
      <point x="36" y="220" type="curve"/>
      <point x="181" y="209" type="line"/>
      <point x="181" y="206"/>
      <point x="181" y="204"/>
      <point x="181" y="202" type="curve" smooth="yes"/>
      <point x="181" y="139"/>
      <point x="219" y="105"/>
      <point x="295" y="105" type="curve" smooth="yes"/>
      <point x="379" y="105"/>
      <point x="409" y="152"/>
      <point x="409" y="196" type="curve" smooth="yes"/>
      <point x="409" y="237"/>
      <point x="384" y="257"/>
      <point x="333" y="276" type="curve" smooth="yes"/>
      <point x="242" y="310" type="line" smooth="yes"/>
      <point x="153" y="343"/>
      <point x="100" y="399"/>
      <point x="100" y="487" type="curve" smooth="yes"/>
      <point x="100" y="599"/>
      <point x="193" y="712"/>
      <point x="366" y="712" type="curve" smooth="yes"/>
      <point x="518" y="712"/>
      <point x="592" y="621"/>
      <point x="592" y="519" type="curve" smooth="yes"/>
      <point x="592" y="513"/>
      <point x="592" y="511"/>
      <point x="591" y="504" type="curve"/>
      <point x="448" y="515" type="line"/>
      <point x="448" y="567"/>
      <point x="412" y="595"/>
      <point x="352" y="595" type="curve" smooth="yes"/>
      <point x="272" y="595"/>
      <point x="244" y="551"/>
      <point x="244" y="513" type="curve" smooth="yes"/>
      <point x="244" y="479"/>
      <point x="262" y="459"/>
      <point x="328" y="434" type="curve" smooth="yes"/>
      <point x="419" y="400" type="line" smooth="yes"/>
      <point x="504" y="368"/>
      <point x="556" y="309"/>
      <point x="556" y="221" type="curve" smooth="yes"/>
      <point x="556" y="106"/>
      <point x="468" y="-12"/>
      <point x="282" y="-12" type="curve" smooth="yes"/>
      <point x="113" y="-12"/>
      <point x="35" y="77"/>
      <point x="35" y="196" type="curve" smooth="yes"/>
      <point x="35" y="206"/>
      <point x="35" y="211"/>
    </contour>
    <contour>
      <point x="190" y="-112" type="line"/>
      <point x="272" y="352" type="line"/>
      <point x="280" y="384" type="line"/>
      <point x="353" y="797" type="line"/>
      <point x="447" y="797" type="line"/>
      <point x="371" y="366" type="line"/>
      <point x="364" y="341" type="line"/>
      <point x="284" y="-112" type="line"/>
    </contour>
  </outline>
</glyph>
<glyph name="dong.tab" format="2">
  <advance width="600"/>
  <outline>
    <contour>
      <point x="276" y="541" type="curve" smooth="yes"/>
      <point x="139" y="541"/>
      <point x="58" y="420"/>
      <point x="58" y="289" type="curve" smooth="yes"/>
      <point x="58" y="179"/>
      <point x="129" y="120"/>
      <point x="218" y="120" type="curve" smooth="yes"/>
      <point x="301" y="120"/>
      <point x="356" y="174"/>
      <point x="390" y="246" type="curve"/>
      <point x="355" y="247" type="line"/>
      <point x="335" y="132" type="line"/>
      <point x="467" y="132" type="line"/>
      <point x="567" y="701" type="line"/>
      <point x="435" y="701" type="line"/>
      <point x="384" y="408" type="line"/>
      <point x="419" y="407" type="line"/>
      <point x="410" y="487"/>
      <point x="369" y="541"/>
    </contour>
    <contour>
      <point x="193" y="308" type="curve" smooth="yes"/>
      <point x="193" y="372"/>
      <point x="232" y="445"/>
      <point x="302" y="445" type="curve" smooth="yes"/>
      <point x="353" y="445"/>
      <point x="379" y="408"/>
      <point x="379" y="356" type="curve" smooth="yes"/>
      <point x="379" y="292"/>
      <point x="339" y="216"/>
      <point x="269" y="216" type="curve" smooth="yes"/>
      <point x="218" y="216"/>
      <point x="193" y="256"/>
    </contour>
    <contour>
      <point x="604" y="569" type="line"/>
      <point x="619" y="659" type="line"/>
      <point x="272" y="659" type="line"/>
      <point x="257" y="569" type="line"/>
    </contour>
    <contour>
      <point x="473" y="0" type="line"/>
      <point x="489" y="90" type="line"/>
      <point x="43" y="90" type="line"/>
      <point x="27" y="0" type="line"/>
    </contour>
  </outline>
</glyph>
<glyph name="eight.den" format="2">
  <advance width="350"/>
  <outline>
    <contour>
      <point x="158" y="270" type="curve" smooth="yes"/>
      <point x="179" y="270"/>
      <point x="192" y="258"/>
      <point x="192" y="242" type="curve" smooth="yes"/>
      <point x="192" y="225"/>
      <point x="177" y="207"/>
      <point x="152" y="207" type="curve" smooth="yes"/>
      <point x="131" y="207"/>
      <point x="118" y="220"/>
      <point x="118" y="236" type="curve" smooth="yes"/>
      <point x="118" y="253"/>
      <point x="132" y="270"/>
    </contour>
    <contour>
      <point x="163" y="336" type="curve" smooth="yes"/>
      <point x="74" y="336"/>
      <point x="29" y="289"/>
      <point x="29" y="237" type="curve" smooth="yes"/>
      <point x="29" y="200"/>
      <point x="52" y="181"/>
      <point x="84" y="173" type="curve"/>
      <point x="85" y="181" type="line"/>
      <point x="35" y="174"/>
      <point x="-9" y="141"/>
      <point x="-9" y="85" type="curve" smooth="yes"/>
      <point x="-9" y="30"/>
      <point x="37" y="-7"/>
      <point x="121" y="-7" type="curve" smooth="yes"/>
      <point x="222" y="-7"/>
      <point x="268" y="52"/>
      <point x="268" y="104" type="curve" smooth="yes"/>
      <point x="268" y="145"/>
      <point x="239" y="169"/>
      <point x="203" y="178" type="curve"/>
      <point x="201" y="170" type="line"/>
      <point x="244" y="175"/>
      <point x="283" y="204"/>
      <point x="283" y="254" type="curve" smooth="yes"/>
      <point x="283" y="301"/>
      <point x="241" y="336"/>
    </contour>
    <contour>
      <point x="134" y="142" type="curve" smooth="yes"/>
      <point x="159" y="142"/>
      <point x="176" y="128"/>
      <point x="176" y="107" type="curve" smooth="yes"/>
      <point x="176" y="85"/>
      <point x="159" y="59"/>
      <point x="127" y="59" type="curve" smooth="yes"/>
      <point x="102" y="59"/>
      <point x="85" y="74"/>
      <point x="85" y="96" type="curve" smooth="yes"/>
      <point x="85" y="118"/>
      <point x="102" y="142"/>
    </contour>
  </outline>
</glyph>
<glyph name="eight.num" format="2">
  <advance width="350"/>
  <outline>
    <contour>
      <point x="222" y="639" type="curve" smooth="yes"/>
      <point x="243" y="639"/>
      <point x="256" y="627"/>
      <point x="256" y="611" type="curve" smooth="yes"/>
      <point x="256" y="594"/>
      <point x="241" y="576"/>
      <point x="216" y="576" type="curve" smooth="yes"/>
      <point x="195" y="576"/>
      <point x="182" y="589"/>
      <point x="182" y="605" type="curve" smooth="yes"/>
      <point x="182" y="622"/>
      <point x="196" y="639"/>
    </contour>
    <contour>
      <point x="227" y="705" type="curve" smooth="yes"/>
      <point x="138" y="705"/>
      <point x="93" y="658"/>
      <point x="93" y="606" type="curve" smooth="yes"/>
      <point x="93" y="569"/>
      <point x="116" y="550"/>
      <point x="148" y="542" type="curve"/>
      <point x="149" y="550" type="line"/>
      <point x="99" y="543"/>
      <point x="55" y="510"/>
      <point x="55" y="454" type="curve" smooth="yes"/>
      <point x="55" y="399"/>
      <point x="101" y="362"/>
      <point x="185" y="362" type="curve" smooth="yes"/>
      <point x="286" y="362"/>
      <point x="332" y="421"/>
      <point x="332" y="473" type="curve" smooth="yes"/>
      <point x="332" y="514"/>
      <point x="303" y="538"/>
      <point x="267" y="547" type="curve"/>
      <point x="265" y="539" type="line"/>
      <point x="308" y="544"/>
      <point x="347" y="573"/>
      <point x="347" y="623" type="curve" smooth="yes"/>
      <point x="347" y="670"/>
      <point x="305" y="705"/>
    </contour>
    <contour>
      <point x="198" y="511" type="curve" smooth="yes"/>
      <point x="223" y="511"/>
      <point x="240" y="497"/>
      <point x="240" y="476" type="curve" smooth="yes"/>
      <point x="240" y="454"/>
      <point x="223" y="428"/>
      <point x="191" y="428" type="curve" smooth="yes"/>
      <point x="166" y="428"/>
      <point x="149" y="443"/>
      <point x="149" y="465" type="curve" smooth="yes"/>
      <point x="149" y="487"/>
      <point x="166" y="511"/>
    </contour>
  </outline>
</glyph>
<glyph name="eight.sup" format="2">
  <advance width="350"/>
  <outline>
    <contour>
      <point x="260" y="739" type="curve" smooth="yes"/>
      <point x="281" y="739"/>
      <point x="294" y="727"/>
      <point x="294" y="711" type="curve" smooth="yes"/>
      <point x="294" y="694"/>
      <point x="279" y="676"/>
      <point x="254" y="676" type="curve" smooth="yes"/>
      <point x="233" y="676"/>
      <point x="220" y="689"/>
      <point x="220" y="705" type="curve" smooth="yes"/>
      <point x="220" y="722"/>
      <point x="234" y="739"/>
    </contour>
    <contour>
      <point x="265" y="805" type="curve" smooth="yes"/>
      <point x="176" y="805"/>
      <point x="131" y="758"/>
      <point x="131" y="706" type="curve" smooth="yes"/>
      <point x="131" y="669"/>
      <point x="154" y="650"/>
      <point x="186" y="642" type="curve"/>
      <point x="187" y="650" type="line"/>
      <point x="137" y="643"/>
      <point x="93" y="610"/>
      <point x="93" y="554" type="curve" smooth="yes"/>
      <point x="93" y="499"/>
      <point x="139" y="462"/>
      <point x="223" y="462" type="curve" smooth="yes"/>
      <point x="324" y="462"/>
      <point x="370" y="521"/>
      <point x="370" y="573" type="curve" smooth="yes"/>
      <point x="370" y="614"/>
      <point x="341" y="638"/>
      <point x="305" y="647" type="curve"/>
      <point x="303" y="639" type="line"/>
      <point x="346" y="644"/>
      <point x="385" y="673"/>
      <point x="385" y="723" type="curve" smooth="yes"/>
      <point x="385" y="770"/>
      <point x="343" y="805"/>
    </contour>
    <contour>
      <point x="236" y="611" type="curve" smooth="yes"/>
      <point x="261" y="611"/>
      <point x="278" y="597"/>
      <point x="278" y="576" type="curve" smooth="yes"/>
      <point x="278" y="554"/>
      <point x="261" y="528"/>
      <point x="229" y="528" type="curve" smooth="yes"/>
      <point x="204" y="528"/>
      <point x="187" y="543"/>
      <point x="187" y="565" type="curve" smooth="yes"/>
      <point x="187" y="587"/>
      <point x="204" y="611"/>
    </contour>
  </outline>
</glyph>
<glyph name="emdash.uc" format="2">
  <advance width="600"/>
  <outline>
    <contour>
      <point x="35" y="276" type="line"/>
      <point x="575" y="276" type="line"/>
      <point x="596" y="396" type="line"/>
      <point x="56" y="396" type="line"/>
    </contour>
  </outline>
</glyph>
<glyph name="five.den" format="2">
  <advance width="350"/>
  <outline>
    <contour>
      <point x="149" y="312" type="line"/>
      <point x="94" y="253" type="line"/>
      <point x="272" y="253" type="line"/>
      <point x="285" y="331" type="line"/>
      <point x="69" y="331" type="line"/>
      <point x="21" y="145" type="line"/>
      <point x="109" y="136" type="line"/>
      <point x="116" y="146"/>
      <point x="124" y="155"/>
      <point x="139" y="155" type="curve" smooth="yes"/>
      <point x="156" y="155"/>
      <point x="163" y="145"/>
      <point x="163" y="124" type="curve" smooth="yes"/>
      <point x="163" y="98"/>
      <point x="150" y="65"/>
      <point x="127" y="65" type="curve" smooth="yes"/>
      <point x="108" y="65"/>
      <point x="97" y="81"/>
      <point x="100" y="105" type="curve"/>
      <point x="5" y="117" type="line"/>
      <point x="4" y="111"/>
      <point x="4" y="103"/>
      <point x="4" y="96" type="curve" smooth="yes"/>
      <point x="4" y="28"/>
      <point x="53" y="-7"/>
      <point x="126" y="-7" type="curve" smooth="yes"/>
      <point x="224" y="-7"/>
      <point x="259" y="63"/>
      <point x="259" y="134" type="curve" smooth="yes"/>
      <point x="259" y="187"/>
      <point x="231" y="224"/>
      <point x="178" y="224" type="curve" smooth="yes"/>
      <point x="128" y="224"/>
      <point x="97" y="193"/>
      <point x="82" y="164" type="curve"/>
      <point x="107" y="167" type="line"/>
    </contour>
  </outline>
</glyph>
<glyph name="five.sub" format="2">
  <advance width="350"/>
  <outline>
    <contour>
      <point x="161" y="271" type="line"/>
      <point x="106" y="212" type="line"/>
      <point x="284" y="212" type="line"/>
      <point x="297" y="290" type="line"/>
      <point x="81" y="290" type="line"/>
      <point x="33" y="104" type="line"/>
      <point x="121" y="95" type="line"/>
      <point x="128" y="105"/>
      <point x="136" y="114"/>
      <point x="151" y="114" type="curve" smooth="yes"/>
      <point x="168" y="114"/>
      <point x="175" y="104"/>
      <point x="175" y="83" type="curve" smooth="yes"/>
      <point x="175" y="57"/>
      <point x="162" y="24"/>
      <point x="139" y="24" type="curve" smooth="yes"/>
      <point x="120" y="24"/>
      <point x="109" y="40"/>
      <point x="112" y="64" type="curve"/>
      <point x="17" y="76" type="line"/>
      <point x="16" y="70"/>
      <point x="16" y="62"/>
      <point x="16" y="55" type="curve" smooth="yes"/>
      <point x="16" y="-13"/>
      <point x="65" y="-48"/>
      <point x="138" y="-48" type="curve" smooth="yes"/>
      <point x="236" y="-48"/>
      <point x="271" y="22"/>
      <point x="271" y="93" type="curve" smooth="yes"/>
      <point x="271" y="146"/>
      <point x="243" y="183"/>
      <point x="190" y="183" type="curve" smooth="yes"/>
      <point x="140" y="183"/>
      <point x="109" y="152"/>
      <point x="94" y="123" type="curve"/>
      <point x="119" y="126" type="line"/>
    </contour>
  </outline>
</glyph>
<glyph name="five.sup" format="2">
  <advance width="350"/>
  <outline>
    <contour>
      <point x="251" y="781" type="line"/>
      <point x="196" y="722" type="line"/>
      <point x="374" y="722" type="line"/>
      <point x="387" y="800" type="line"/>
      <point x="171" y="800" type="line"/>
      <point x="123" y="614" type="line"/>
      <point x="211" y="605" type="line"/>
      <point x="218" y="615"/>
      <point x="226" y="624"/>
      <point x="241" y="624" type="curve" smooth="yes"/>
      <point x="258" y="624"/>
      <point x="265" y="614"/>
      <point x="265" y="593" type="curve" smooth="yes"/>
      <point x="265" y="567"/>
      <point x="252" y="534"/>
      <point x="229" y="534" type="curve" smooth="yes"/>
      <point x="210" y="534"/>
      <point x="199" y="550"/>
      <point x="202" y="574" type="curve"/>
      <point x="107" y="586" type="line"/>
      <point x="106" y="580"/>
      <point x="106" y="572"/>
      <point x="106" y="565" type="curve" smooth="yes"/>
      <point x="106" y="497"/>
      <point x="155" y="462"/>
      <point x="228" y="462" type="curve" smooth="yes"/>
      <point x="326" y="462"/>
      <point x="361" y="532"/>
      <point x="361" y="603" type="curve" smooth="yes"/>
      <point x="361" y="656"/>
      <point x="333" y="693"/>
      <point x="280" y="693" type="curve" smooth="yes"/>
      <point x="230" y="693"/>
      <point x="199" y="662"/>
      <point x="184" y="633" type="curve"/>
      <point x="209" y="636" type="line"/>
    </contour>
  </outline>
</glyph>
<glyph name="five.tab" format="2">
  <advance width="600"/>
  <outline>
    <contour>
      <point x="301" y="662" type="line"/>
      <point x="217" y="580" type="line"/>
      <point x="590" y="580" type="line"/>
      <point x="611" y="700" type="line"/>
      <point x="183" y="700" type="line"/>
      <point x="80" y="310" type="line"/>
      <point x="206" y="291" type="line"/>
      <point x="230" y="332"/>
      <point x="269" y="361"/>
      <point x="324" y="361" type="curve" smooth="yes"/>
      <point x="387" y="361"/>
      <point x="417" y="324"/>
      <point x="417" y="263" type="curve" smooth="yes"/>
      <point x="417" y="182"/>
      <point x="373" y="104"/>
      <point x="281" y="104" type="curve" smooth="yes"/>
      <point x="210" y="104"/>
      <point x="183" y="147"/>
      <point x="183" y="188" type="curve" smooth="yes"/>
      <point x="183" y="192"/>
      <point x="183" y="193"/>
      <point x="184" y="200" type="curve"/>
      <point x="36" y="217" type="line"/>
      <point x="34" y="208"/>
      <point x="33" y="197"/>
      <point x="33" y="185" type="curve" smooth="yes"/>
      <point x="33" y="56"/>
      <point x="132" y="-12"/>
      <point x="270" y="-12" type="curve" smooth="yes"/>
      <point x="466" y="-12"/>
      <point x="562" y="135"/>
      <point x="562" y="285" type="curve" smooth="yes"/>
      <point x="562" y="404"/>
      <point x="495" y="473"/>
      <point x="378" y="473" type="curve" smooth="yes"/>
      <point x="275" y="473"/>
      <point x="203" y="413"/>
      <point x="176" y="358" type="curve"/>
      <point x="220" y="356" type="line"/>
    </contour>
  </outline>
</glyph>
<glyph name="four.sub" format="2">
  <advance width="350"/>
  <outline>
    <contour>
      <point x="129" y="-43" type="line"/>
      <point x="214" y="-43" type="line"/>
      <point x="272" y="290" type="line"/>
      <point x="152" y="290" type="line"/>
      <point x="17" y="93" type="line"/>
      <point x="3" y="16" type="line"/>
      <point x="272" y="16" type="line"/>
      <point x="285" y="90" type="line"/>
      <point x="57" y="90" type="line"/>
      <point x="77" y="66" type="line"/>
      <point x="219" y="274" type="line"/>
      <point x="184" y="271" type="line"/>
    </contour>
  </outline>
</glyph>
<glyph name="four.sup" format="2">
  <advance width="350"/>
  <outline>
    <contour>
      <point x="219" y="467" type="line"/>
      <point x="304" y="467" type="line"/>
      <point x="362" y="800" type="line"/>
      <point x="242" y="800" type="line"/>
      <point x="107" y="603" type="line"/>
      <point x="93" y="526" type="line"/>
      <point x="362" y="526" type="line"/>
      <point x="375" y="600" type="line"/>
      <point x="147" y="600" type="line"/>
      <point x="167" y="576" type="line"/>
      <point x="309" y="784" type="line"/>
      <point x="274" y="781" type="line"/>
    </contour>
  </outline>
</glyph>
<glyph name="hyphen.uc" format="2">
  <advance width="600"/>
  <outline>
    <contour>
      <point x="138" y="265" type="line"/>
      <point x="468" y="265" type="line"/>
      <point x="493" y="407" type="line"/>
      <point x="163" y="407" type="line"/>
    </contour>
  </outline>
</glyph>
<glyph name="nine.den" format="2">
  <advance width="350"/>
  <outline>
    <contour>
      <point x="162" y="336" type="curve" smooth="yes"/>
      <point x="59" y="336"/>
      <point x="16" y="265"/>
      <point x="16" y="200" type="curve" smooth="yes"/>
      <point x="16" y="142"/>
      <point x="53" y="113"/>
      <point x="108" y="113" type="curve" smooth="yes"/>
      <point x="159" y="113"/>
      <point x="193" y="138"/>
      <point x="208" y="184" type="curve"/>
      <point x="187" y="185" type="line"/>
      <point x="181" y="154" type="line" smooth="yes"/>
      <point x="172" y="106"/>
      <point x="154" y="61"/>
      <point x="122" y="61" type="curve" smooth="yes"/>
      <point x="102" y="61"/>
      <point x="93" y="75"/>
      <point x="97" y="96" type="curve"/>
      <point x="1" y="110" type="line"/>
      <point x="0" y="103"/>
      <point x="0" y="101"/>
      <point x="0" y="95" type="curve" smooth="yes"/>
      <point x="0" y="29"/>
      <point x="46" y="-7"/>
      <point x="115" y="-7" type="curve" smooth="yes"/>
      <point x="210" y="-7"/>
      <point x="257" y="55"/>
      <point x="277" y="167" type="curve" smooth="yes"/>
      <point x="281" y="189"/>
      <point x="283" y="207"/>
      <point x="283" y="223" type="curve" smooth="yes"/>
      <point x="283" y="283"/>
      <point x="251" y="336"/>
    </contour>
    <contour>
      <point x="157" y="267" type="curve" smooth="yes"/>
      <point x="177" y="267"/>
      <point x="190" y="253"/>
      <point x="190" y="229" type="curve" smooth="yes"/>
      <point x="190" y="200"/>
      <point x="171" y="175"/>
      <point x="144" y="175" type="curve" smooth="yes"/>
      <point x="124" y="175"/>
      <point x="112" y="188"/>
      <point x="112" y="212" type="curve" smooth="yes"/>
      <point x="112" y="241"/>
      <point x="130" y="267"/>
    </contour>
  </outline>
</glyph>
<glyph name="nine.sub" format="2">
  <advance width="350"/>
  <outline>
    <contour>
      <point x="176" y="295" type="curve" smooth="yes"/>
      <point x="73" y="295"/>
      <point x="30" y="224"/>
      <point x="30" y="159" type="curve" smooth="yes"/>
      <point x="30" y="101"/>
      <point x="67" y="72"/>
      <point x="122" y="72" type="curve" smooth="yes"/>
      <point x="173" y="72"/>
      <point x="207" y="97"/>
      <point x="222" y="143" type="curve"/>
      <point x="201" y="144" type="line"/>
      <point x="195" y="113" type="line" smooth="yes"/>
      <point x="186" y="65"/>
      <point x="168" y="20"/>
      <point x="136" y="20" type="curve" smooth="yes"/>
      <point x="116" y="20"/>
      <point x="107" y="34"/>
      <point x="111" y="55" type="curve"/>
      <point x="15" y="69" type="line"/>
      <point x="14" y="62"/>
      <point x="14" y="60"/>
      <point x="14" y="54" type="curve" smooth="yes"/>
      <point x="14" y="-12"/>
      <point x="60" y="-48"/>
      <point x="129" y="-48" type="curve" smooth="yes"/>
      <point x="224" y="-48"/>
      <point x="271" y="14"/>
      <point x="291" y="126" type="curve" smooth="yes"/>
      <point x="295" y="148"/>
      <point x="297" y="166"/>
      <point x="297" y="182" type="curve" smooth="yes"/>
      <point x="297" y="242"/>
      <point x="265" y="295"/>
    </contour>
    <contour>
      <point x="171" y="226" type="curve" smooth="yes"/>
      <point x="191" y="226"/>
      <point x="204" y="212"/>
      <point x="204" y="188" type="curve" smooth="yes"/>
      <point x="204" y="159"/>
      <point x="185" y="134"/>
      <point x="158" y="134" type="curve" smooth="yes"/>
      <point x="138" y="134"/>
      <point x="126" y="147"/>
      <point x="126" y="171" type="curve" smooth="yes"/>
      <point x="126" y="200"/>
      <point x="144" y="226"/>
    </contour>
  </outline>
</glyph>
<glyph name="nine.sup" format="2">
  <advance width="350"/>
  <outline>
    <contour>
      <point x="266" y="805" type="curve" smooth="yes"/>
      <point x="163" y="805"/>
      <point x="120" y="734"/>
      <point x="120" y="669" type="curve" smooth="yes"/>
      <point x="120" y="611"/>
      <point x="157" y="582"/>
      <point x="212" y="582" type="curve" smooth="yes"/>
      <point x="263" y="582"/>
      <point x="297" y="607"/>
      <point x="312" y="653" type="curve"/>
      <point x="291" y="654" type="line"/>
      <point x="285" y="623" type="line" smooth="yes"/>
      <point x="276" y="575"/>
      <point x="258" y="530"/>
      <point x="226" y="530" type="curve" smooth="yes"/>
      <point x="206" y="530"/>
      <point x="197" y="544"/>
      <point x="201" y="565" type="curve"/>
      <point x="105" y="579" type="line"/>
      <point x="104" y="572"/>
      <point x="104" y="570"/>
      <point x="104" y="564" type="curve" smooth="yes"/>
      <point x="104" y="498"/>
      <point x="150" y="462"/>
      <point x="219" y="462" type="curve" smooth="yes"/>
      <point x="314" y="462"/>
      <point x="361" y="524"/>
      <point x="381" y="636" type="curve" smooth="yes"/>
      <point x="385" y="658"/>
      <point x="387" y="676"/>
      <point x="387" y="692" type="curve" smooth="yes"/>
      <point x="387" y="752"/>
      <point x="355" y="805"/>
    </contour>
    <contour>
      <point x="261" y="736" type="curve" smooth="yes"/>
      <point x="281" y="736"/>
      <point x="294" y="722"/>
      <point x="294" y="698" type="curve" smooth="yes"/>
      <point x="294" y="669"/>
      <point x="275" y="644"/>
      <point x="248" y="644" type="curve" smooth="yes"/>
      <point x="228" y="644"/>
      <point x="216" y="657"/>
      <point x="216" y="681" type="curve" smooth="yes"/>
      <point x="216" y="710"/>
      <point x="234" y="736"/>
    </contour>
  </outline>
</glyph>
<glyph name="notequal.tab" format="2">
  <advance width="600"/>
  <outline>
    <contour>
      <point x="48" y="70" type="line"/>
      <point x="177" y="70" type="line"/>
      <point x="584" y="610" type="line"/>
      <point x="455" y="610" type="line"/>
    </contour>
    <contour>
      <point x="569" y="392" type="line"/>
      <point x="590" y="512" type="line"/>
      <point x="102" y="512" type="line"/>
      <point x="81" y="392" type="line"/>
    </contour>
    <contour>
      <point x="529" y="168" type="line"/>
      <point x="550" y="288" type="line"/>
      <point x="62" y="288" type="line"/>
      <point x="41" y="168" type="line"/>
    </contour>
  </outline>
</glyph>
<glyph name="one.sup" format="2">
  <advance width="350"/>
  <outline>
    <contour>
      <point x="231" y="800" type="line"/>
      <point x="221" y="742"/>
      <point x="201" y="724"/>
      <point x="138" y="724" type="curve"/>
      <point x="125" y="653" type="line"/>
      <point x="250" y="653" type="line"/>
      <point x="208" y="716" type="line"/>
      <point x="164" y="467" type="line"/>
      <point x="257" y="467" type="line"/>
      <point x="317" y="800" type="line"/>
    </contour>
  </outline>
</glyph>
<glyph name="parenleft.uc" format="2">
  <advance width="600"/>
  <outline>
    <contour>
      <point x="592" y="745" type="curve"/>
      <point x="427" y="745" type="line"/>
      <point x="269" y="634"/>
      <point x="141" y="477"/>
      <point x="141" y="284" type="curve" smooth="yes"/>
      <point x="141" y="149"/>
      <point x="202" y="14"/>
      <point x="303" y="-83" type="curve"/>
      <point x="446" y="-83" type="line"/>
      <point x="350" y="20"/>
      <point x="295" y="138"/>
      <point x="295" y="273" type="curve" smooth="yes"/>
      <point x="295" y="481"/>
      <point x="427" y="624"/>
    </contour>
  </outline>
</glyph>
<glyph name="plus.sup" format="2">
  <advance width="350"/>
  <outline>
    <contour>
      <point x="109" y="594" type="line"/>
      <point x="363" y="594" type="line"/>
      <point x="377" y="676" type="line"/>
      <point x="123" y="676" type="line"/>
    </contour>
    <contour>
      <point x="224" y="769" type="line"/>
      <point x="176" y="501" type="line"/>
      <point x="262" y="501" type="line"/>
      <point x="310" y="769" type="line"/>
    </contour>
  </outline>
</glyph>
<glyph name="six.sup" format="2">
  <advance width="350"/>
  <outline>
    <contour>
      <point x="99" y="579" type="curve" smooth="yes"/>
      <point x="99" y="506"/>
      <point x="140" y="462"/>
      <point x="219" y="462" type="curve" smooth="yes"/>
      <point x="319" y="462"/>
      <point x="367" y="534"/>
      <point x="367" y="600" type="curve" smooth="yes"/>
      <point x="367" y="656"/>
      <point x="333" y="688"/>
      <point x="276" y="688" type="curve" smooth="yes"/>
      <point x="226" y="688"/>
      <point x="186" y="660"/>
      <point x="170" y="615" type="curve"/>
      <point x="196" y="614" type="line"/>
      <point x="201" y="643" type="line" smooth="yes"/>
      <point x="212" y="705"/>
      <point x="242" y="730"/>
      <point x="267" y="730" type="curve" smooth="yes"/>
      <point x="282" y="730"/>
      <point x="291" y="721"/>
      <point x="288" y="706" type="curve"/>
      <point x="379" y="696" type="line"/>
      <point x="380" y="701"/>
      <point x="381" y="708"/>
      <point x="381" y="712" type="curve" smooth="yes"/>
      <point x="381" y="770"/>
      <point x="345" y="804"/>
      <point x="277" y="804" type="curve"/>
      <point x="188" y="804"/>
      <point x="123" y="736"/>
      <point x="104" y="629" type="curve" smooth="yes"/>
      <point x="101" y="611"/>
      <point x="99" y="594"/>
    </contour>
    <contour>
      <point x="192" y="568" type="curve" smooth="yes"/>
      <point x="192" y="593"/>
      <point x="208" y="624"/>
      <point x="239" y="624" type="curve" smooth="yes"/>
      <point x="259" y="624"/>
      <point x="271" y="611"/>
      <point x="271" y="588" type="curve" smooth="yes"/>
      <point x="271" y="564"/>
      <point x="256" y="531"/>
      <point x="225" y="531" type="curve" smooth="yes"/>
      <point x="204" y="531"/>
      <point x="192" y="545"/>
    </contour>
  </outline>
</glyph>
<glyph name="three.den" format="2">
  <advance width="350"/>
  <outline>
    <contour>
      <point x="0" y="117" type="line"/>
      <point x="-2" y="107"/>
      <point x="-4" y="97"/>
      <point x="-4" y="88" type="curve" smooth="yes"/>
      <point x="-4" y="25"/>
      <point x="49" y="-7"/>
      <point x="119" y="-7" type="curve" smooth="yes"/>
      <point x="209" y="-7"/>
      <point x="259" y="44"/>
      <point x="259" y="106" type="curve" smooth="yes"/>
      <point x="259" y="141"/>
      <point x="236" y="163"/>
      <point x="203" y="171" type="curve"/>
      <point x="202" y="167" type="line"/>
      <point x="236" y="175"/>
      <point x="276" y="202"/>
      <point x="276" y="253" type="curve" smooth="yes"/>
      <point x="276" y="296"/>
      <point x="242" y="336"/>
      <point x="160" y="336" type="curve" smooth="yes"/>
      <point x="86" y="336"/>
      <point x="31" y="296"/>
      <point x="23" y="218" type="curve"/>
      <point x="115" y="224" type="line"/>
      <point x="116" y="247"/>
      <point x="129" y="264"/>
      <point x="152" y="264" type="curve" smooth="yes"/>
      <point x="164" y="264"/>
      <point x="179" y="257"/>
      <point x="179" y="237" type="curve" smooth="yes"/>
      <point x="179" y="217"/>
      <point x="166" y="203"/>
      <point x="147" y="203" type="curve" smooth="yes"/>
      <point x="127" y="203" type="line"/>
      <point x="116" y="136" type="line"/>
      <point x="127" y="136" type="line" smooth="yes"/>
      <point x="153" y="136"/>
      <point x="164" y="127"/>
      <point x="164" y="107" type="curve" smooth="yes"/>
      <point x="164" y="85"/>
      <point x="152" y="65"/>
      <point x="124" y="65" type="curve" smooth="yes"/>
      <point x="104" y="65"/>
      <point x="90" y="77"/>
      <point x="90" y="96" type="curve" smooth="yes"/>
      <point x="90" y="100"/>
      <point x="91" y="105"/>
      <point x="93" y="111" type="curve"/>
    </contour>
  </outline>
</glyph>
<glyph name="three.num" format="2">
  <advance width="350"/>
  <outline>
    <contour>
      <point x="63" y="486" type="line"/>
      <point x="61" y="476"/>
      <point x="59" y="466"/>
      <point x="59" y="457" type="curve" smooth="yes"/>
      <point x="59" y="394"/>
      <point x="112" y="362"/>
      <point x="182" y="362" type="curve" smooth="yes"/>
      <point x="272" y="362"/>
      <point x="322" y="413"/>
      <point x="322" y="475" type="curve" smooth="yes"/>
      <point x="322" y="510"/>
      <point x="299" y="532"/>
      <point x="266" y="540" type="curve"/>
      <point x="265" y="536" type="line"/>
      <point x="299" y="544"/>
      <point x="339" y="571"/>
      <point x="339" y="622" type="curve" smooth="yes"/>
      <point x="339" y="665"/>
      <point x="305" y="705"/>
      <point x="223" y="705" type="curve" smooth="yes"/>
      <point x="149" y="705"/>
      <point x="94" y="665"/>
      <point x="86" y="587" type="curve"/>
      <point x="178" y="593" type="line"/>
      <point x="179" y="616"/>
      <point x="192" y="633"/>
      <point x="215" y="633" type="curve" smooth="yes"/>
      <point x="227" y="633"/>
      <point x="242" y="626"/>
      <point x="242" y="606" type="curve" smooth="yes"/>
      <point x="242" y="586"/>
      <point x="229" y="572"/>
      <point x="210" y="572" type="curve" smooth="yes"/>
      <point x="190" y="572" type="line"/>
      <point x="179" y="505" type="line"/>
      <point x="190" y="505" type="line" smooth="yes"/>
      <point x="216" y="505"/>
      <point x="227" y="496"/>
      <point x="227" y="476" type="curve" smooth="yes"/>
      <point x="227" y="454"/>
      <point x="215" y="434"/>
      <point x="187" y="434" type="curve" smooth="yes"/>
      <point x="167" y="434"/>
      <point x="153" y="446"/>
      <point x="153" y="465" type="curve" smooth="yes"/>
      <point x="153" y="469"/>
      <point x="154" y="474"/>
      <point x="156" y="480" type="curve"/>
    </contour>
  </outline>
</glyph>
<glyph name="two.den" format="2">
  <advance width="350"/>
  <outline>
    <contour>
      <point x="0" y="75" type="curve"/>
      <point x="-13" y="0" type="line"/>
      <point x="224" y="0" type="line"/>
      <point x="237" y="77" type="line"/>
      <point x="55" y="77" type="line"/>
      <point x="46" y="24" type="line"/>
      <point x="168" y="104"/>
      <point x="266" y="151"/>
      <point x="266" y="241" type="curve" smooth="yes"/>
      <point x="266" y="291"/>
      <point x="235" y="338"/>
      <point x="154" y="338" type="curve" smooth="yes"/>
      <point x="62" y="338"/>
      <point x="20" y="283"/>
      <point x="20" y="229" type="curve" smooth="yes"/>
      <point x="20" y="217"/>
      <point x="22" y="207"/>
      <point x="26" y="196" type="curve"/>
      <point x="115" y="204" type="line"/>
      <point x="112" y="211"/>
      <point x="110" y="219"/>
      <point x="110" y="226" type="curve" smooth="yes"/>
      <point x="110" y="249"/>
      <point x="123" y="264"/>
      <point x="144" y="264" type="curve" smooth="yes"/>
      <point x="159" y="264"/>
      <point x="170" y="257"/>
      <point x="170" y="237" type="curve" smooth="yes"/>
      <point x="170" y="194"/>
      <point x="123" y="166"/>
    </contour>
  </outline>
</glyph>
<glyph name="two.sup" format="2">
  <advance width="350"/>
  <outline>
    <contour>
      <point x="104" y="542" type="curve"/>
      <point x="91" y="467" type="line"/>
      <point x="328" y="467" type="line"/>
      <point x="341" y="544" type="line"/>
      <point x="159" y="544" type="line"/>
      <point x="150" y="491" type="line"/>
      <point x="272" y="571"/>
      <point x="370" y="618"/>
      <point x="370" y="708" type="curve" smooth="yes"/>
      <point x="370" y="758"/>
      <point x="339" y="805"/>
      <point x="258" y="805" type="curve" smooth="yes"/>
      <point x="166" y="805"/>
      <point x="124" y="750"/>
      <point x="124" y="696" type="curve" smooth="yes"/>
      <point x="124" y="684"/>
      <point x="126" y="674"/>
      <point x="130" y="663" type="curve"/>
      <point x="219" y="671" type="line"/>
      <point x="216" y="678"/>
      <point x="214" y="686"/>
      <point x="214" y="693" type="curve" smooth="yes"/>
      <point x="214" y="716"/>
      <point x="227" y="731"/>
      <point x="248" y="731" type="curve" smooth="yes"/>
      <point x="263" y="731"/>
      <point x="274" y="724"/>
      <point x="274" y="704" type="curve" smooth="yes"/>
      <point x="274" y="661"/>
      <point x="227" y="633"/>
    </contour>
  </outline>
</glyph>
<glyph name="zero.den" format="2">
  <advance width="350"/>
  <outline>
    <contour>
      <point x="189" y="201" type="curve" smooth="yes"/>
      <point x="189" y="146"/>
      <point x="169" y="71"/>
      <point x="123" y="71" type="curve" smooth="yes"/>
      <point x="101" y="71"/>
      <point x="89" y="89"/>
      <point x="89" y="128" type="curve" smooth="yes"/>
      <point x="89" y="183"/>
      <point x="109" y="258"/>
      <point x="155" y="258" type="curve" smooth="yes"/>
      <point x="177" y="258"/>
      <point x="189" y="240"/>
    </contour>
    <contour>
      <point x="-5" y="124" type="curve" smooth="yes"/>
      <point x="-5" y="42"/>
      <point x="41" y="-7"/>
      <point x="115" y="-7" type="curve" smooth="yes"/>
      <point x="224" y="-7"/>
      <point x="284" y="99"/>
      <point x="284" y="204" type="curve" smooth="yes"/>
      <point x="284" y="287"/>
      <point x="237" y="336"/>
      <point x="163" y="336" type="curve" smooth="yes"/>
      <point x="54" y="336"/>
      <point x="-5" y="230"/>
    </contour>
  </outline>
</glyph>
<glyph name="zero.sub" format="2">
  <advance width="350"/>
  <outline>
    <contour>
      <point x="202" y="160" type="curve" smooth="yes"/>
      <point x="202" y="105"/>
      <point x="182" y="30"/>
      <point x="136" y="30" type="curve" smooth="yes"/>
      <point x="114" y="30"/>
      <point x="102" y="48"/>
      <point x="102" y="87" type="curve" smooth="yes"/>
      <point x="102" y="142"/>
      <point x="122" y="217"/>
      <point x="168" y="217" type="curve" smooth="yes"/>
      <point x="190" y="217"/>
      <point x="202" y="199"/>
    </contour>
    <contour>
      <point x="8" y="83" type="curve" smooth="yes"/>
      <point x="8" y="1"/>
      <point x="54" y="-48"/>
      <point x="128" y="-48" type="curve" smooth="yes"/>
      <point x="237" y="-48"/>
      <point x="297" y="58"/>
      <point x="297" y="163" type="curve" smooth="yes"/>
      <point x="297" y="246"/>
      <point x="250" y="295"/>
      <point x="176" y="295" type="curve" smooth="yes"/>
      <point x="67" y="295"/>
      <point x="8" y="189"/>
    </contour>
  </outline>
</glyph>
